<svg width="372" height="442" viewBox="0 0 372 442" fill="none" xmlns="http://www.w3.org/2000/svg">
<path d="M12 0.5H360C366.351 0.5 371.5 5.64873 371.5 12V406C371.5 425.606 355.606 441.5 336 441.5H36C16.3939 441.5 0.5 425.606 0.5 406V12C0.5 5.64873 5.64873 0.5 12 0.5Z" fill="white"/>
<path d="M79.835 18.488V31H84.017C86.805 31 88.811 29.827 88.811 27.328C88.811 25.628 87.774 24.676 86.346 24.353V24.268C87.485 23.877 88.131 22.772 88.131 21.565C88.131 19.304 86.278 18.488 83.711 18.488H79.835ZM83.49 23.707H81.807V20.018H83.541C85.309 20.018 86.193 20.511 86.193 21.82C86.193 22.993 85.394 23.707 83.49 23.707ZM83.796 29.453H81.807V25.203H83.796C85.785 25.203 86.873 25.798 86.873 27.226C86.873 28.79 85.785 29.453 83.796 29.453ZM93.4739 31.221C94.7659 31.221 95.6669 30.609 96.5339 29.589H96.5849L96.7379 31H98.3359V21.65H96.3809V28.144C95.6159 29.113 95.0039 29.538 94.1369 29.538C93.0319 29.538 92.5729 28.926 92.5729 27.294V21.65H90.6179V27.532C90.6179 29.929 91.4849 31.221 93.4739 31.221ZM104.004 34.91L108.594 21.65H106.69L105.194 26.461L104.463 29.096H104.378C104.089 28.229 103.8 27.294 103.528 26.461L101.794 21.65H99.7879L103.494 30.932L102.151 34.91H104.004Z" fill="black"/>
<rect x="1" y="51" width="185" height="2" fill="black"/>
<path d="M269.616 32.721C272.217 32.721 273.849 31.157 273.849 29.185C273.849 27.332 272.727 26.482 271.282 25.853L269.497 25.088C268.528 24.68 267.44 24.238 267.44 23.014C267.44 21.858 268.341 21.178 269.769 21.178C270.925 21.178 271.843 21.62 272.608 22.351L273.441 21.348C272.557 20.396 271.265 19.801 269.769 19.801C267.508 19.801 265.842 21.195 265.842 23.116C265.842 24.952 267.236 25.819 268.375 26.312L270.177 27.094C271.35 27.638 272.251 28.029 272.251 29.304C272.251 30.528 271.265 31.344 269.633 31.344C268.341 31.344 267.083 30.749 266.182 29.797L265.247 30.868C266.335 32.024 267.848 32.721 269.616 32.721ZM279.629 32.721C280.921 32.721 281.873 32.296 282.689 31.769L282.128 30.749C281.448 31.208 280.717 31.48 279.816 31.48C278.048 31.48 276.875 30.239 276.756 28.25H282.978C283.029 28.029 283.046 27.706 283.046 27.366C283.046 24.731 281.72 23.031 279.374 23.031C277.232 23.031 275.209 24.901 275.209 27.893C275.209 30.953 277.181 32.721 279.629 32.721ZM281.686 27.145H276.739C276.926 25.326 278.082 24.272 279.391 24.272C280.836 24.272 281.686 25.224 281.686 27.145ZM285.069 18.968V32.5H286.616V18.968H285.069ZM289.467 18.968V32.5H291.014V18.968H289.467Z" fill="#E3E9ED"/>
<path d="M372 52H0V54H372V52Z" fill="#E3E9ED" mask="url(#path-2-inside-1_1622_7050)"/>
<path d="M23.808 87.169C24.692 87.169 25.485 86.805 26.161 86.246H26.2L26.304 87H27.279V82.658C27.279 80.929 26.551 79.759 24.835 79.759C23.691 79.759 22.651 80.175 21.988 80.591L22.456 81.436C23.015 81.059 23.808 80.747 24.64 80.747C25.797 80.747 26.096 81.618 26.096 82.528C23.301 82.567 21.754 83.282 21.754 85.102C21.754 86.389 22.625 87.169 23.808 87.169ZM24.146 86.22C23.418 86.22 22.911 85.856 22.911 85.024C22.911 83.932 23.587 83.477 26.096 83.308V85.401C25.407 86.012 24.835 86.22 24.146 86.22ZM30.5089 79.941H29.5339V87H30.7169V81.878C31.3539 81.163 31.9519 80.799 32.4979 80.799C33.3949 80.799 33.8109 81.332 33.8109 82.684V87H34.9939V81.878C35.6569 81.163 36.2549 80.799 36.7749 80.799C37.6719 80.799 38.0879 81.332 38.0879 82.684V87H39.2709V82.528C39.2709 80.695 38.5949 79.759 37.1259 79.759C36.2419 79.759 35.5269 80.318 34.7989 81.111C34.4999 80.279 33.9409 79.759 32.8489 79.759C32.0039 79.759 31.2629 80.292 30.6519 80.968H30.6129L30.5089 79.941ZM44.312 87.169C46.041 87.169 47.588 85.817 47.588 83.477C47.588 81.124 46.041 79.759 44.312 79.759C42.583 79.759 41.036 81.124 41.036 83.477C41.036 85.817 42.583 87.169 44.312 87.169ZM44.312 86.181C43.103 86.181 42.271 85.102 42.271 83.477C42.271 81.852 43.103 80.747 44.312 80.747C45.521 80.747 46.366 81.852 46.366 83.477C46.366 85.102 45.521 86.181 44.312 86.181ZM51.5068 87.169C52.4818 87.169 53.1838 86.662 53.8468 85.895H53.8858L53.9768 87H54.9648V79.941H53.7818V84.946C53.1058 85.791 52.5988 86.142 51.8708 86.142C50.9348 86.142 50.5448 85.583 50.5448 84.27V79.941H49.3618V84.413C49.3618 86.246 49.9858 87.169 51.5068 87.169ZM58.3243 79.941H57.3493V87H58.5323V81.878C59.2473 81.163 59.7413 80.799 60.4693 80.799C61.4053 80.799 61.8083 81.332 61.8083 82.684V87H62.9913V82.528C62.9913 80.695 62.3543 79.759 60.8333 79.759C59.8583 79.759 59.1433 80.292 58.4673 80.955H58.4283L58.3243 79.941ZM67.5196 87.169C67.9486 87.169 68.4166 87.052 68.8196 86.909L68.5856 86.025C68.3386 86.116 68.0266 86.207 67.7796 86.207C66.9476 86.207 66.6876 85.726 66.6876 84.842V80.903H68.5986V79.941H66.6876V77.965H65.6996L65.5566 79.941L64.4516 80.006V80.903H65.5046V84.816C65.5046 86.233 66.0116 87.169 67.5196 87.169ZM72.8832 79.941V87H74.0662V79.941H72.8832ZM72.8962 78.485H74.0792V77.263H72.8962V78.485ZM77.2149 79.941H76.2399V87H77.4229V81.878C78.1379 81.163 78.6319 80.799 79.3599 80.799C80.2959 80.799 80.6989 81.332 80.6989 82.684V87H81.8819V82.528C81.8819 80.695 81.2449 79.759 79.7239 79.759C78.7489 79.759 78.0339 80.292 77.3579 80.955H77.3189L77.2149 79.941ZM84.3952 79.941H83.1602L85.7082 87H87.0862L89.5952 79.941H88.4252L87.0862 83.958C86.8782 84.647 86.6442 85.375 86.4362 86.038H86.3842C86.1632 85.375 85.9422 84.647 85.7212 83.958L84.3952 79.941ZM93.8135 87.169C94.8015 87.169 95.5295 86.844 96.1535 86.441L95.7245 85.661C95.2045 86.012 94.6455 86.22 93.9565 86.22C92.6045 86.22 91.7075 85.271 91.6165 83.75H96.3745C96.4135 83.581 96.4265 83.334 96.4265 83.074C96.4265 81.059 95.4125 79.759 93.6185 79.759C91.9805 79.759 90.4335 81.189 90.4335 83.477C90.4335 85.817 91.9415 87.169 93.8135 87.169ZM95.3865 82.905H91.6035C91.7465 81.514 92.6305 80.708 93.6315 80.708C94.7365 80.708 95.3865 81.436 95.3865 82.905ZM100.011 87.169C101.675 87.169 102.585 86.22 102.585 85.076C102.585 83.75 101.454 83.308 100.427 82.931C99.6338 82.619 98.8668 82.385 98.8668 81.709C98.8668 81.15 99.2698 80.695 100.154 80.695C100.791 80.695 101.272 80.955 101.779 81.319L102.351 80.552C101.792 80.123 101.038 79.759 100.154 79.759C98.6198 79.759 97.7228 80.656 97.7228 81.761C97.7228 82.944 98.8408 83.451 99.8288 83.802C100.609 84.114 101.441 84.426 101.441 85.141C101.441 85.752 100.986 86.246 100.05 86.246C99.2048 86.246 98.5678 85.921 97.9568 85.414L97.3718 86.194C98.0478 86.753 99.0098 87.169 100.011 87.169ZM106.177 87.169C106.606 87.169 107.074 87.052 107.477 86.909L107.243 86.025C106.996 86.116 106.684 86.207 106.437 86.207C105.605 86.207 105.345 85.726 105.345 84.842V80.903H107.256V79.941H105.345V77.965H104.357L104.214 79.941L103.109 80.006V80.903H104.162V84.816C104.162 86.233 104.669 87.169 106.177 87.169ZM111.701 87.169C112.689 87.169 113.417 86.844 114.041 86.441L113.612 85.661C113.092 86.012 112.533 86.22 111.844 86.22C110.492 86.22 109.595 85.271 109.504 83.75H114.262C114.301 83.581 114.314 83.334 114.314 83.074C114.314 81.059 113.3 79.759 111.506 79.759C109.868 79.759 108.321 81.189 108.321 83.477C108.321 85.817 109.829 87.169 111.701 87.169ZM113.274 82.905H109.491C109.634 81.514 110.518 80.708 111.519 80.708C112.624 80.708 113.274 81.436 113.274 82.905ZM118.457 87.169C119.302 87.169 120.043 86.727 120.602 86.168H120.628L120.745 87H121.707V76.652H120.524V79.369L120.589 80.591C119.965 80.071 119.432 79.759 118.6 79.759C116.988 79.759 115.545 81.189 115.545 83.477C115.545 85.83 116.689 87.169 118.457 87.169ZM118.717 86.181C117.469 86.181 116.767 85.193 116.767 83.464C116.767 81.852 117.664 80.76 118.808 80.76C119.393 80.76 119.913 80.968 120.524 81.501V85.206C119.939 85.869 119.38 86.181 118.717 86.181Z" fill="#B4BDC2"/>
<path d="M279.879 84.816C279.892 84.66 279.905 84.517 279.905 84.374C279.905 83.074 278.891 82.372 277.812 81.917L277.214 81.696V78.407C277.838 78.446 278.41 78.784 278.865 79.2L279.398 78.537C278.722 77.861 278.15 77.575 277.214 77.471V76.405H276.408V77.471C275.069 77.523 273.782 78.394 273.704 79.811C273.665 80.396 274.016 81.319 274.679 81.696C275.004 81.904 275.342 82.06 275.693 82.216L276.408 82.489V86.012C275.615 85.973 274.562 85.544 274.042 84.92L273.405 85.739C274.185 86.571 275.303 86.974 276.408 87.026V88.118H277.214V87C278.501 86.831 279.671 86.181 279.879 84.816ZM276.408 78.394V81.449L276.148 81.371C275.42 81.098 275.316 81.007 275.108 80.799C274.796 80.539 274.692 80.162 274.692 79.759C274.692 78.901 275.654 78.433 276.408 78.394ZM277.214 85.999V82.762C277.786 82.957 278.41 83.191 278.735 83.75C278.891 84.075 278.891 84.231 278.891 84.426V84.556C278.8 85.531 278.137 85.96 277.214 85.999ZM284.511 80.032L285.694 80.227C285.694 79.161 286.487 78.355 287.579 78.355C288.58 78.355 289.282 78.888 289.282 79.98C289.282 80.968 288.684 81.657 287.007 81.696V82.554C289.048 82.554 289.477 83.308 289.477 84.335C289.477 85.18 288.814 86.142 287.449 86.142C286.461 86.142 285.876 85.635 285.473 84.803C285.369 84.556 285.304 84.361 285.278 84.218L284.212 84.66C284.667 86.064 285.408 87.169 287.462 87.169C289.243 87.169 290.686 86.051 290.686 84.309C290.686 83.113 290.036 82.32 288.788 82.008C289.828 81.657 290.465 81.033 290.465 79.785C290.465 78.329 289.295 77.315 287.644 77.315C286.019 77.315 284.758 78.303 284.511 80.032ZM298.417 87V85.947H294.66C294.335 85.947 293.945 85.999 293.581 86.103L296.246 83.464C297.325 82.385 298.235 81.397 298.235 79.98C298.235 78.29 296.974 77.302 295.349 77.302C293.724 77.302 292.463 78.251 292.216 80.006L293.386 80.201C293.386 79.109 294.192 78.329 295.284 78.329C296.272 78.329 297 78.862 297.039 80.006C297.039 81.124 296.311 81.943 295.31 83.009L292.021 86.168V87H298.417ZM305.914 87V86.038H304.042V77.419H303.093L300.532 79.629L301.169 80.396L302.898 78.849C302.885 78.94 302.885 79.057 302.885 79.174V86.038H300.766V87H305.914ZM308.731 85.349H307.548L307.08 87.975H307.938L308.731 85.349ZM316.368 87V85.947H312.611C312.286 85.947 311.896 85.999 311.532 86.103L314.197 83.464C315.276 82.385 316.186 81.397 316.186 79.98C316.186 78.29 314.925 77.302 313.3 77.302C311.675 77.302 310.414 78.251 310.167 80.006L311.337 80.201C311.337 79.109 312.143 78.329 313.235 78.329C314.223 78.329 314.951 78.862 314.99 80.006C314.99 81.124 314.262 81.943 313.261 83.009L309.972 86.168V87H316.368ZM323.865 87V86.038H321.993V77.419H321.044L318.483 79.629L319.12 80.396L320.849 78.849C320.836 78.94 320.836 79.057 320.836 79.174V86.038H318.717V87H323.865ZM325.694 80.032L326.877 80.227C326.877 79.161 327.67 78.355 328.762 78.355C329.763 78.355 330.465 78.888 330.465 79.98C330.465 80.968 329.867 81.657 328.19 81.696V82.554C330.231 82.554 330.66 83.308 330.66 84.335C330.66 85.18 329.997 86.142 328.632 86.142C327.644 86.142 327.059 85.635 326.656 84.803C326.552 84.556 326.487 84.361 326.461 84.218L325.395 84.66C325.85 86.064 326.591 87.169 328.645 87.169C330.426 87.169 331.869 86.051 331.869 84.309C331.869 83.113 331.219 82.32 329.971 82.008C331.011 81.657 331.648 81.033 331.648 79.785C331.648 78.329 330.478 77.315 328.827 77.315C327.202 77.315 325.941 78.303 325.694 80.032ZM334.245 85.96H333.062V87.182H334.245V85.96ZM342.909 82.255C342.909 78.862 341.375 77.315 339.412 77.315C337.436 77.315 335.915 78.862 335.915 82.255C335.915 85.635 337.436 87.182 339.412 87.182C341.375 87.182 342.909 85.635 342.909 82.255ZM341.713 82.255C341.713 85.219 340.621 86.22 339.412 86.22C338.203 86.22 337.124 85.219 337.124 82.255C337.124 79.278 338.203 78.29 339.412 78.29C340.621 78.29 341.713 79.278 341.713 82.255ZM350.341 87V85.947H346.584C346.259 85.947 345.869 85.999 345.505 86.103L348.17 83.464C349.249 82.385 350.159 81.397 350.159 79.98C350.159 78.29 348.898 77.302 347.273 77.302C345.648 77.302 344.387 78.251 344.14 80.006L345.31 80.201C345.31 79.109 346.116 78.329 347.208 78.329C348.196 78.329 348.924 78.862 348.963 80.006C348.963 81.124 348.235 81.943 347.234 83.009L343.945 86.168V87H350.341Z" fill="#B4BDC2"/>
<path d="M22.261 97.432V107H23.769V97.432H22.261ZM26.1297 99.85V107H27.6117V101.93C28.2487 101.293 28.7037 100.955 29.3667 100.955C30.2117 100.955 30.5757 101.436 30.5757 102.684V107H32.0707V102.502C32.0707 100.669 31.3947 99.668 29.8737 99.668C28.8987 99.668 28.1707 100.201 27.5077 100.838H27.4687L27.3517 99.85H26.1297ZM33.293 99.85L35.828 107H37.557L40.027 99.85H38.571L37.349 103.698C37.154 104.426 36.933 105.102 36.725 105.83H36.673C36.465 105.102 36.244 104.426 36.049 103.698L34.827 99.85H33.293ZM44.2268 107.169C45.1628 107.169 45.9818 106.87 46.6448 106.415L46.1248 105.466C45.6048 105.817 45.0588 105.999 44.4218 105.999C43.1738 105.999 42.3288 105.18 42.2118 103.815H46.8528C46.8918 103.62 46.9178 103.373 46.9178 103.061C46.9178 101.033 45.9038 99.668 44.0058 99.668C42.3288 99.668 40.7428 101.098 40.7428 103.438C40.7428 105.791 42.2898 107.169 44.2268 107.169ZM45.6308 102.788H42.1988C42.3418 101.54 43.1478 100.838 44.0318 100.838C45.0718 100.838 45.6308 101.54 45.6308 102.788ZM50.5504 107.169C52.3184 107.169 53.2674 106.194 53.2674 104.998C53.2674 103.646 52.1624 103.204 51.1614 102.827C50.3814 102.541 49.6404 102.307 49.6404 101.696C49.6404 101.189 50.0044 100.812 50.7844 100.812C51.3954 100.812 51.8764 101.072 52.3834 101.436L53.0854 100.513C52.5004 100.058 51.7464 99.668 50.7584 99.668C49.1854 99.668 48.2234 100.565 48.2234 101.761C48.2234 102.983 49.3284 103.464 50.2644 103.841C51.0444 104.153 51.8504 104.413 51.8504 105.076C51.8504 105.635 51.4734 106.038 50.5894 106.038C49.8094 106.038 49.1984 105.726 48.5614 105.219L47.8594 106.181C48.5484 106.753 49.5624 107.169 50.5504 107.169ZM56.9595 107.169C57.4795 107.169 57.9605 107.052 58.3635 106.909L58.0905 105.804C57.8825 105.895 57.5705 105.973 57.3235 105.973C56.5825 105.973 56.2835 105.557 56.2835 104.673V101.046H58.1425V99.85H56.2835V97.874H55.0225L54.8535 99.85L53.7485 99.928V101.046H54.7885V104.66C54.7885 106.168 55.3475 107.169 56.9595 107.169ZM61.0814 107.169C61.9654 107.169 62.6934 106.779 63.3564 106.22H63.3954L63.5254 107H64.7474V102.697C64.7474 100.76 63.9284 99.668 62.1474 99.668C61.0034 99.668 60.0284 100.084 59.2874 100.552L59.7294 101.644C60.3404 101.241 61.1074 100.89 61.8874 100.89C62.9404 100.89 63.2524 101.605 63.2524 102.45C61.7834 102.554 60.7044 102.671 59.9764 103.074C59.2354 103.529 58.9754 104.309 58.9754 105.102C58.9754 106.363 59.8464 107.169 61.0814 107.169ZM61.5364 105.986C60.8994 105.986 60.4184 105.726 60.4184 104.998C60.4184 104.699 60.3664 104.361 60.7434 104.01C61.1984 103.594 61.8744 103.594 63.2524 103.425V105.193C62.6674 105.726 62.1604 105.986 61.5364 105.986ZM70.197 107.169C71.809 107.169 73.278 105.752 73.278 103.308C73.278 101.111 72.251 99.668 70.444 99.668C69.664 99.668 68.923 100.071 68.312 100.604L68.351 99.382V96.639H66.869V107H68.039L68.182 106.259H68.221C68.832 106.844 69.534 107.169 70.197 107.169ZM69.911 105.934C69.456 105.934 68.91 105.765 68.351 105.284V101.787C68.936 101.202 69.495 100.916 70.054 100.916C71.25 100.916 71.731 101.813 71.731 103.334C71.731 105.011 70.951 105.934 69.911 105.934ZM74.9668 96.652V107H76.4488V96.652H74.9668ZM81.5764 107.169C82.5124 107.169 83.3314 106.87 83.9944 106.415L83.4744 105.466C82.9544 105.817 82.4084 105.999 81.7714 105.999C80.5234 105.999 79.6784 105.18 79.5614 103.815H84.2024C84.2414 103.62 84.2674 103.373 84.2674 103.061C84.2674 101.033 83.2534 99.668 81.3554 99.668C79.6784 99.668 78.0924 101.098 78.0924 103.438C78.0924 105.791 79.6394 107.169 81.5764 107.169ZM82.9804 102.788H79.5484C79.6914 101.54 80.4974 100.838 81.3814 100.838C82.4214 100.838 82.9804 101.54 82.9804 102.788ZM90.5473 107.169C91.4313 107.169 92.1593 106.779 92.8223 106.22H92.8613L92.9913 107H94.2133V102.697C94.2133 100.76 93.3943 99.668 91.6133 99.668C90.4693 99.668 89.4943 100.084 88.7533 100.552L89.1953 101.644C89.8063 101.241 90.5733 100.89 91.3533 100.89C92.4063 100.89 92.7183 101.605 92.7183 102.45C91.2493 102.554 90.1703 102.671 89.4423 103.074C88.7013 103.529 88.4413 104.309 88.4413 105.102C88.4413 106.363 89.3123 107.169 90.5473 107.169ZM91.0023 105.986C90.3653 105.986 89.8843 105.726 89.8843 104.998C89.8843 104.699 89.8323 104.361 90.2093 104.01C90.6643 103.594 91.3403 103.594 92.7183 103.425V105.193C92.1333 105.726 91.6263 105.986 91.0023 105.986ZM96.3478 99.85V107H97.8298V101.93C98.4278 101.28 98.9608 100.955 99.4418 100.955C100.274 100.955 100.638 101.436 100.638 102.684V107H102.133V101.93C102.731 101.28 103.264 100.955 103.745 100.955C104.577 100.955 104.941 101.436 104.941 102.684V107H106.436V102.502C106.436 100.669 105.76 99.668 104.239 99.668C103.342 99.668 102.64 100.201 101.912 100.981C101.6 100.149 101.028 99.668 99.9358 99.668C99.0518 99.668 98.3368 100.188 97.7258 100.851H97.6868L97.5698 99.85H96.3478ZM111.459 107.169C113.227 107.169 114.826 105.791 114.826 103.438C114.826 101.046 113.227 99.668 111.459 99.668C109.691 99.668 108.092 101.046 108.092 103.438C108.092 105.791 109.691 107.169 111.459 107.169ZM111.459 105.947C110.354 105.947 109.639 104.946 109.639 103.438C109.639 101.917 110.315 100.903 111.459 100.903C112.603 100.903 113.292 101.917 113.292 103.438C113.292 104.946 112.59 105.947 111.459 105.947ZM118.664 107.169C119.652 107.169 120.341 106.701 121.004 105.921H121.043L121.16 107H122.382V99.85H120.887V104.816C120.302 105.557 119.834 105.882 119.171 105.882C118.326 105.882 117.975 105.414 117.975 104.166V99.85H116.48V104.348C116.48 106.181 117.143 107.169 118.664 107.169ZM124.633 99.85V107H126.115V101.93C126.752 101.293 127.207 100.955 127.87 100.955C128.715 100.955 129.079 101.436 129.079 102.684V107H130.574V102.502C130.574 100.669 129.898 99.668 128.377 99.668C127.402 99.668 126.674 100.201 126.011 100.838H125.972L125.855 99.85H124.633ZM135.15 107.169C135.67 107.169 136.151 107.052 136.554 106.909L136.281 105.804C136.073 105.895 135.761 105.973 135.514 105.973C134.773 105.973 134.474 105.557 134.474 104.673V101.046H136.333V99.85H134.474V97.874H133.213L133.044 99.85L131.939 99.928V101.046H132.979V104.66C132.979 106.168 133.538 107.169 135.15 107.169Z" fill="black"/>
<path d="M247.263 100.032L248.446 100.227C248.446 99.161 249.239 98.355 250.331 98.355C251.332 98.355 252.034 98.888 252.034 99.98C252.034 100.968 251.436 101.657 249.759 101.696V102.554C251.8 102.554 252.229 103.308 252.229 104.335C252.229 105.18 251.566 106.142 250.201 106.142C249.213 106.142 248.628 105.635 248.225 104.803C248.121 104.556 248.056 104.361 248.03 104.218L246.964 104.66C247.419 106.064 248.16 107.169 250.214 107.169C251.995 107.169 253.438 106.051 253.438 104.309C253.438 103.113 252.788 102.32 251.54 102.008C252.58 101.657 253.217 101.033 253.217 99.785C253.217 98.329 252.047 97.315 250.396 97.315C248.771 97.315 247.51 98.303 247.263 100.032ZM258.829 103.217L255.865 107H257.36L259.973 103.399C260.701 102.398 261.117 101.527 261.117 100.396C261.117 98.537 259.882 97.237 258.01 97.237C256.112 97.237 254.773 98.602 254.773 100.305C254.773 102.112 256.021 103.1 257.516 103.1C258.231 103.1 258.842 102.892 259.349 102.489C259.258 102.606 259.102 102.853 258.829 103.217ZM255.982 100.214C255.982 99.057 256.788 98.264 257.997 98.264C259.115 98.264 259.96 99.005 259.96 100.253C259.96 101.254 259.206 102.164 257.906 102.164C256.71 102.164 255.982 101.475 255.982 100.214ZM268.666 107V106.038H266.794V97.419H265.845L263.284 99.629L263.921 100.396L265.65 98.849C265.637 98.94 265.637 99.057 265.637 99.174V106.038H263.518V107H268.666ZM271.483 105.349H270.3L269.832 107.975H270.69L271.483 105.349ZM276.78 103.217L273.816 107H275.311L277.924 103.399C278.652 102.398 279.068 101.527 279.068 100.396C279.068 98.537 277.833 97.237 275.961 97.237C274.063 97.237 272.724 98.602 272.724 100.305C272.724 102.112 273.972 103.1 275.467 103.1C276.182 103.1 276.793 102.892 277.3 102.489C277.209 102.606 277.053 102.853 276.78 103.217ZM273.933 100.214C273.933 99.057 274.739 98.264 275.948 98.264C277.066 98.264 277.911 99.005 277.911 100.253C277.911 101.254 277.157 102.164 275.857 102.164C274.661 102.164 273.933 101.475 273.933 100.214ZM285.044 102.034C286.084 101.657 286.604 100.903 286.604 99.798C286.604 98.394 285.395 97.237 283.653 97.237C281.846 97.237 280.702 98.394 280.702 99.798C280.702 100.89 281.248 101.657 282.236 102.034C281.04 102.359 280.351 103.191 280.351 104.439C280.351 106.142 281.703 107.221 283.653 107.221C285.577 107.221 286.929 106.142 286.929 104.439C286.929 103.191 286.253 102.359 285.044 102.034ZM283.653 98.186C284.823 98.186 285.395 98.927 285.395 99.837C285.395 100.708 284.94 101.579 283.653 101.579C282.34 101.579 281.885 100.708 281.885 99.837C281.885 98.927 282.457 98.186 283.653 98.186ZM283.653 106.246C282.353 106.246 281.612 105.518 281.612 104.426C281.612 103.087 282.561 102.528 283.653 102.528C284.732 102.528 285.668 103.087 285.668 104.426C285.668 105.518 284.953 106.246 283.653 106.246ZM294.361 107V106.038H292.489V97.419H291.54L288.979 99.629L289.616 100.396L291.345 98.849C291.332 98.94 291.332 99.057 291.332 99.174V106.038H289.213V107H294.361ZM296.997 105.96H295.814V107.182H296.997V105.96ZM305.661 102.255C305.661 98.862 304.127 97.315 302.164 97.315C300.188 97.315 298.667 98.862 298.667 102.255C298.667 105.635 300.188 107.182 302.164 107.182C304.127 107.182 305.661 105.635 305.661 102.255ZM304.465 102.255C304.465 105.219 303.373 106.22 302.164 106.22C300.955 106.22 299.876 105.219 299.876 102.255C299.876 99.278 300.955 98.29 302.164 98.29C303.373 98.29 304.465 99.278 304.465 102.255ZM313.093 107V105.947H309.336C309.011 105.947 308.621 105.999 308.257 106.103L310.922 103.464C312.001 102.385 312.911 101.397 312.911 99.98C312.911 98.29 311.65 97.302 310.025 97.302C308.4 97.302 307.139 98.251 306.892 100.006L308.062 100.201C308.062 99.109 308.868 98.329 309.96 98.329C310.948 98.329 311.676 98.862 311.715 100.006C311.715 101.124 310.987 101.943 309.986 103.009L306.697 106.168V107H313.093ZM321.339 107.169C323.289 107.169 324.771 106.129 324.771 103.061V97.471H323.614V103.1C323.614 105.388 322.626 106.116 321.339 106.116C320.091 106.116 319.129 105.388 319.129 103.1V97.471H317.92V103.061C317.92 106.129 319.402 107.169 321.339 107.169ZM329.98 107.169C331.969 107.169 333.217 105.973 333.217 104.465C333.217 103.048 332.359 102.398 331.254 101.917L329.889 101.332C329.148 101.02 328.316 100.682 328.316 99.746C328.316 98.862 329.005 98.342 330.097 98.342C330.981 98.342 331.683 98.68 332.268 99.239L332.905 98.472C332.229 97.744 331.241 97.289 330.097 97.289C328.368 97.289 327.094 98.355 327.094 99.824C327.094 101.228 328.16 101.891 329.031 102.268L330.409 102.866C331.306 103.282 331.995 103.581 331.995 104.556C331.995 105.492 331.241 106.116 329.993 106.116C329.005 106.116 328.043 105.661 327.354 104.933L326.639 105.752C327.471 106.636 328.628 107.169 329.98 107.169ZM337.477 97.471H335.085V107H337.529C340.389 107 341.975 105.219 341.975 102.203C341.975 99.096 340.48 97.471 337.477 97.471ZM337.373 106.012H336.294V98.446H337.373C339.674 98.446 340.727 99.746 340.727 102.203C340.727 104.608 339.622 106.012 337.373 106.012ZM347.611 107.169C348.859 107.169 349.756 106.688 350.536 105.804L349.873 105.05C349.262 105.713 348.599 106.116 347.663 106.116C345.843 106.116 344.699 104.608 344.699 102.203C344.699 99.811 345.895 98.342 347.702 98.342C348.534 98.342 349.145 98.719 349.652 99.252L350.302 98.472C349.756 97.861 348.846 97.289 347.689 97.289C345.258 97.289 343.464 99.161 343.464 102.242C343.464 105.323 345.258 107.169 347.611 107.169Z" fill="black"/>
<rect x="21" y="132" width="330" height="1" fill="#E3E9ED"/>
<path d="M23.895 165.005H22.5V176H23.895V165.005ZM27.8995 167.855H26.7745V176H28.1395V170.09C28.9645 169.265 29.5345 168.845 30.3745 168.845C31.4545 168.845 31.9195 169.46 31.9195 171.02V176H33.2845V170.84C33.2845 168.725 32.5495 167.645 30.7945 167.645C29.6695 167.645 28.8445 168.26 28.0645 169.025H28.0195L27.8995 167.855ZM36.1845 167.855H34.7595L37.6995 176H39.2895L42.1845 167.855H40.8345L39.2895 172.49C39.0495 173.285 38.7795 174.125 38.5395 174.89H38.4795C38.2245 174.125 37.9695 173.285 37.7145 172.49L36.1845 167.855ZM47.0517 176.195C48.1917 176.195 49.0317 175.82 49.7517 175.355L49.2567 174.455C48.6567 174.86 48.0117 175.1 47.2167 175.1C45.6567 175.1 44.6217 174.005 44.5167 172.25H50.0067C50.0517 172.055 50.0667 171.77 50.0667 171.47C50.0667 169.145 48.8967 167.645 46.8267 167.645C44.9367 167.645 43.1517 169.295 43.1517 171.935C43.1517 174.635 44.8917 176.195 47.0517 176.195ZM48.8667 171.275H44.5017C44.6667 169.67 45.6867 168.74 46.8417 168.74C48.1167 168.74 48.8667 169.58 48.8667 171.275ZM54.2024 176.195C56.1224 176.195 57.1724 175.1 57.1724 173.78C57.1724 172.25 55.8674 171.74 54.6824 171.305C53.7674 170.945 52.8824 170.675 52.8824 169.895C52.8824 169.25 53.3474 168.725 54.3674 168.725C55.1024 168.725 55.6574 169.025 56.2424 169.445L56.9024 168.56C56.2574 168.065 55.3874 167.645 54.3674 167.645C52.5974 167.645 51.5624 168.68 51.5624 169.955C51.5624 171.32 52.8524 171.905 53.9924 172.31C54.8924 172.67 55.8524 173.03 55.8524 173.855C55.8524 174.56 55.3274 175.13 54.2474 175.13C53.2724 175.13 52.5374 174.755 51.8324 174.17L51.1574 175.07C51.9374 175.715 53.0474 176.195 54.2024 176.195ZM61.3171 176.195C61.8121 176.195 62.3521 176.06 62.8171 175.895L62.5471 174.875C62.2621 174.98 61.9021 175.085 61.6171 175.085C60.6571 175.085 60.3571 174.53 60.3571 173.51V168.965H62.5621V167.855H60.3571V165.575H59.2171L59.0521 167.855L57.7771 167.93V168.965H58.9921V173.48C58.9921 175.115 59.5771 176.195 61.3171 176.195ZM69.2759 165.005H67.8809V176H69.2759V165.005ZM73.2804 167.855H72.1554V176H73.5204V170.09C74.3454 169.265 74.9154 168.845 75.7554 168.845C76.8354 168.845 77.3004 169.46 77.3004 171.02V176H78.6654V170.84C78.6654 168.725 77.9304 167.645 76.1754 167.645C75.0504 167.645 74.2254 168.26 73.4454 169.025H73.4004L73.2804 167.855Z" fill="black"/>
<path d="M159.4 176.195C161.65 176.195 163.36 174.995 163.36 171.455V165.005H162.025V171.5C162.025 174.14 160.885 174.98 159.4 174.98C157.96 174.98 156.85 174.14 156.85 171.5V165.005H155.455V171.455C155.455 174.995 157.165 176.195 159.4 176.195ZM169.371 176.195C171.666 176.195 173.106 174.815 173.106 173.075C173.106 171.44 172.116 170.69 170.841 170.135L169.266 169.46C168.411 169.1 167.451 168.71 167.451 167.63C167.451 166.61 168.246 166.01 169.506 166.01C170.526 166.01 171.336 166.4 172.011 167.045L172.746 166.16C171.966 165.32 170.826 164.795 169.506 164.795C167.511 164.795 166.041 166.025 166.041 167.72C166.041 169.34 167.271 170.105 168.276 170.54L169.866 171.23C170.901 171.71 171.696 172.055 171.696 173.18C171.696 174.26 170.826 174.98 169.386 174.98C168.246 174.98 167.136 174.455 166.341 173.615L165.516 174.56C166.476 175.58 167.811 176.195 169.371 176.195ZM178.021 165.005H175.261V176H178.081C181.381 176 183.211 173.945 183.211 170.465C183.211 166.88 181.486 165.005 178.021 165.005ZM177.901 174.86H176.656V166.13H177.901C180.556 166.13 181.771 167.63 181.771 170.465C181.771 173.24 180.496 174.86 177.901 174.86ZM189.714 176.195C191.154 176.195 192.189 175.64 193.089 174.62L192.324 173.75C191.619 174.515 190.854 174.98 189.774 174.98C187.674 174.98 186.354 173.24 186.354 170.465C186.354 167.705 187.734 166.01 189.819 166.01C190.779 166.01 191.484 166.445 192.069 167.06L192.819 166.16C192.189 165.455 191.139 164.795 189.804 164.795C186.999 164.795 184.929 166.955 184.929 170.51C184.929 174.065 186.999 176.195 189.714 176.195Z" fill="black"/>
<path d="M335.5 164.5L339.397 169H331.603L335.5 164.5Z" fill="black"/>
<path d="M335.5 176.5L339.397 172H331.603L335.5 176.5Z" fill="black"/>
<rect x="140.5" y="147.5" width="210" height="46" rx="3.5" stroke="#B5BBC0"/>
<path d="M23.52 227.64H27.54L28.59 231H30.06L26.325 220.005H24.78L21.045 231H22.455L23.52 227.64ZM26.67 224.85L27.195 226.53H23.865L24.405 224.85C24.81 223.59 25.155 222.45 25.5 221.13H25.56C25.92 222.405 26.265 223.59 26.67 224.85ZM32.6163 222.855H31.4913V231H32.8563V225.09C33.5913 224.265 34.2813 223.845 34.9113 223.845C35.9463 223.845 36.4263 224.46 36.4263 226.02V231H37.7913V225.09C38.5563 224.265 39.2463 223.845 39.8463 223.845C40.8813 223.845 41.3613 224.46 41.3613 226.02V231H42.7263V225.84C42.7263 223.725 41.9463 222.645 40.2513 222.645C39.2313 222.645 38.4063 223.29 37.5663 224.205C37.2213 223.245 36.5763 222.645 35.3163 222.645C34.3413 222.645 33.4863 223.26 32.7813 224.04H32.7363L32.6163 222.855ZM48.543 231.195C50.538 231.195 52.323 229.635 52.323 226.935C52.323 224.22 50.538 222.645 48.543 222.645C46.548 222.645 44.763 224.22 44.763 226.935C44.763 229.635 46.548 231.195 48.543 231.195ZM48.543 230.055C47.148 230.055 46.188 228.81 46.188 226.935C46.188 225.06 47.148 223.785 48.543 223.785C49.938 223.785 50.913 225.06 50.913 226.935C50.913 228.81 49.938 230.055 48.543 230.055ZM56.8447 231.195C57.9697 231.195 58.7797 230.61 59.5447 229.725H59.5897L59.6947 231H60.8347V222.855H59.4697V228.63C58.6897 229.605 58.1047 230.01 57.2647 230.01C56.1847 230.01 55.7347 229.365 55.7347 227.85V222.855H54.3697V228.015C54.3697 230.13 55.0897 231.195 56.8447 231.195ZM64.7111 222.855H63.5861V231H64.9511V225.09C65.7761 224.265 66.3461 223.845 67.1861 223.845C68.2661 223.845 68.7311 224.46 68.7311 226.02V231H70.0961V225.84C70.0961 223.725 69.3611 222.645 67.6061 222.645C66.4811 222.645 65.6561 223.26 64.8761 224.025H64.8311L64.7111 222.855ZM75.321 231.195C75.816 231.195 76.356 231.06 76.821 230.895L76.551 229.875C76.266 229.98 75.906 230.085 75.621 230.085C74.661 230.085 74.361 229.53 74.361 228.51V223.965H76.566V222.855H74.361V220.575H73.221L73.056 222.855L71.781 222.93V223.965H72.996V228.48C72.996 230.115 73.581 231.195 75.321 231.195Z" fill="black"/>
<path d="M163.535 225.525C163.535 221.61 161.765 219.825 159.5 219.825C157.22 219.825 155.465 221.61 155.465 225.525C155.465 229.425 157.22 231.21 159.5 231.21C161.765 231.21 163.535 229.425 163.535 225.525ZM162.155 225.525C162.155 228.945 160.895 230.1 159.5 230.1C158.105 230.1 156.86 228.945 156.86 225.525C156.86 222.09 158.105 220.95 159.5 220.95C160.895 220.95 162.155 222.09 162.155 225.525ZM165.931 229.8H164.566V231.21H165.931V229.8ZM175.928 225.525C175.928 221.61 174.158 219.825 171.893 219.825C169.613 219.825 167.858 221.61 167.858 225.525C167.858 229.425 169.613 231.21 171.893 231.21C174.158 231.21 175.928 229.425 175.928 225.525ZM174.548 225.525C174.548 228.945 173.288 230.1 171.893 230.1C170.498 230.1 169.253 228.945 169.253 225.525C169.253 222.09 170.498 220.95 171.893 220.95C173.288 220.95 174.548 222.09 174.548 225.525ZM184.863 225.525C184.863 221.61 183.093 219.825 180.828 219.825C178.548 219.825 176.793 221.61 176.793 225.525C176.793 229.425 178.548 231.21 180.828 231.21C183.093 231.21 184.863 229.425 184.863 225.525ZM183.483 225.525C183.483 228.945 182.223 230.1 180.828 230.1C179.433 230.1 178.188 228.945 178.188 225.525C178.188 222.09 179.433 220.95 180.828 220.95C182.223 220.95 183.483 222.09 183.483 225.525Z" fill="#E3E9ED"/>
<path d="M305.4 231.195C307.65 231.195 309.36 229.995 309.36 226.455V220.005H308.025V226.5C308.025 229.14 306.885 229.98 305.4 229.98C303.96 229.98 302.85 229.14 302.85 226.5V220.005H301.455V226.455C301.455 229.995 303.165 231.195 305.4 231.195ZM315.371 231.195C317.666 231.195 319.106 229.815 319.106 228.075C319.106 226.44 318.116 225.69 316.841 225.135L315.266 224.46C314.411 224.1 313.451 223.71 313.451 222.63C313.451 221.61 314.246 221.01 315.506 221.01C316.526 221.01 317.336 221.4 318.011 222.045L318.746 221.16C317.966 220.32 316.826 219.795 315.506 219.795C313.511 219.795 312.041 221.025 312.041 222.72C312.041 224.34 313.271 225.105 314.276 225.54L315.866 226.23C316.901 226.71 317.696 227.055 317.696 228.18C317.696 229.26 316.826 229.98 315.386 229.98C314.246 229.98 313.136 229.455 312.341 228.615L311.516 229.56C312.476 230.58 313.811 231.195 315.371 231.195ZM324.021 220.005H321.261V231H324.081C327.381 231 329.211 228.945 329.211 225.465C329.211 221.88 327.486 220.005 324.021 220.005ZM323.901 229.86H322.656V221.13H323.901C326.556 221.13 327.771 222.63 327.771 225.465C327.771 228.24 326.496 229.86 323.901 229.86ZM335.714 231.195C337.154 231.195 338.189 230.64 339.089 229.62L338.324 228.75C337.619 229.515 336.854 229.98 335.774 229.98C333.674 229.98 332.354 228.24 332.354 225.465C332.354 222.705 333.734 221.01 335.819 221.01C336.779 221.01 337.484 221.445 338.069 222.06L338.819 221.16C338.189 220.455 337.139 219.795 335.804 219.795C332.999 219.795 330.929 221.955 330.929 225.51C330.929 229.065 332.999 231.195 335.714 231.195Z" fill="#E3E9ED"/>
<rect x="141.5" y="202.5" width="209" height="46" rx="3.5" stroke="#E3E9ED"/>
<path d="M56.4183 272V271.186H54.8343V263.893H54.0313L51.8643 265.763L52.4033 266.412L53.8663 265.103C53.8553 265.18 53.8553 265.279 53.8553 265.378V271.186H52.0623V272H56.4183ZM63.4441 267.985C63.4441 265.114 62.1461 263.805 60.4851 263.805C58.8131 263.805 57.5261 265.114 57.5261 267.985C57.5261 270.845 58.8131 272.154 60.4851 272.154C62.1461 272.154 63.4441 270.845 63.4441 267.985ZM62.4321 267.985C62.4321 270.493 61.5081 271.34 60.4851 271.34C59.4621 271.34 58.5491 270.493 58.5491 267.985C58.5491 265.466 59.4621 264.63 60.4851 264.63C61.5081 264.63 62.4321 265.466 62.4321 267.985ZM65.9928 268.667C67.1368 268.667 67.8518 267.842 67.8518 266.203C67.8518 264.564 67.1368 263.772 65.9928 263.772C64.8818 263.772 64.1558 264.564 64.1558 266.203C64.1558 267.842 64.8818 268.667 65.9928 268.667ZM71.4598 263.772H70.5908L66.1358 272.132H67.0158L71.4598 263.772ZM65.9928 267.985C65.3878 267.985 64.9698 267.468 64.9698 266.203C64.9698 264.96 65.3768 264.454 65.9928 264.454C66.6088 264.454 67.0268 264.938 67.0268 266.203C67.0268 267.479 66.6088 267.985 65.9928 267.985ZM71.5808 272.11C72.6918 272.11 73.4288 271.296 73.4288 269.657C73.4288 268.018 72.6918 267.226 71.5808 267.226C70.4698 267.226 69.7218 268.018 69.7218 269.657C69.7218 271.296 70.4698 272.11 71.5808 272.11ZM71.5808 271.428C70.9648 271.428 70.5468 270.922 70.5468 269.657C70.5468 268.392 70.9648 267.897 71.5808 267.897C72.1968 267.897 72.6038 268.392 72.6038 269.657C72.6038 270.933 72.1968 271.428 71.5808 271.428Z" fill="black"/>
<path d="M102.5 263V274H104.5V263H102.5Z" fill="#E3E9ED" mask="url(#path-22-inside-2_1622_7050)"/>
<path d="M139.127 272V271.109H135.948C135.673 271.109 135.343 271.153 135.035 271.241L137.29 269.008C138.203 268.095 138.973 267.259 138.973 266.06C138.973 264.63 137.906 263.794 136.531 263.794C135.156 263.794 134.089 264.597 133.88 266.082L134.87 266.247C134.87 265.323 135.552 264.663 136.476 264.663C137.312 264.663 137.928 265.114 137.961 266.082C137.961 267.028 137.345 267.721 136.498 268.623L133.715 271.296V272H139.127ZM141.786 266.94L142.149 264.828H145.306V263.904H141.445L140.785 267.721L141.434 267.908C141.907 267.743 142.325 267.644 142.754 267.644C143.909 267.644 144.591 268.26 144.591 269.316C144.591 270.504 143.788 271.197 142.677 271.197C142.017 271.197 141.379 270.9 140.895 270.493L140.356 271.23C140.851 271.703 141.665 272.099 142.633 272.099C144.272 272.099 145.559 270.977 145.559 269.261C145.559 267.853 144.646 266.797 142.941 266.797C142.545 266.797 142.16 266.841 141.786 266.94ZM148.493 268.667C149.637 268.667 150.352 267.842 150.352 266.203C150.352 264.564 149.637 263.772 148.493 263.772C147.382 263.772 146.656 264.564 146.656 266.203C146.656 267.842 147.382 268.667 148.493 268.667ZM153.96 263.772H153.091L148.636 272.132H149.516L153.96 263.772ZM148.493 267.985C147.888 267.985 147.47 267.468 147.47 266.203C147.47 264.96 147.877 264.454 148.493 264.454C149.109 264.454 149.527 264.938 149.527 266.203C149.527 267.479 149.109 267.985 148.493 267.985ZM154.081 272.11C155.192 272.11 155.929 271.296 155.929 269.657C155.929 268.018 155.192 267.226 154.081 267.226C152.97 267.226 152.222 268.018 152.222 269.657C152.222 271.296 152.97 272.11 154.081 272.11ZM154.081 271.428C153.465 271.428 153.047 270.922 153.047 269.657C153.047 268.392 153.465 267.897 154.081 267.897C154.697 267.897 155.104 268.392 155.104 269.657C155.104 270.933 154.697 271.428 154.081 271.428Z" fill="black"/>
<path d="M185 263V274H187V263H185Z" fill="#E3E9ED" mask="url(#path-25-inside-3_1622_7050)"/>
<path d="M217.733 266.94L218.096 264.828H221.253V263.904H217.392L216.732 267.721L217.381 267.908C217.854 267.743 218.272 267.644 218.701 267.644C219.856 267.644 220.538 268.26 220.538 269.316C220.538 270.504 219.735 271.197 218.624 271.197C217.964 271.197 217.326 270.9 216.842 270.493L216.303 271.23C216.798 271.703 217.612 272.099 218.58 272.099C220.219 272.099 221.506 270.977 221.506 269.261C221.506 267.853 220.593 266.797 218.888 266.797C218.492 266.797 218.107 266.841 217.733 266.94ZM228.444 267.985C228.444 265.114 227.146 263.805 225.485 263.805C223.813 263.805 222.526 265.114 222.526 267.985C222.526 270.845 223.813 272.154 225.485 272.154C227.146 272.154 228.444 270.845 228.444 267.985ZM227.432 267.985C227.432 270.493 226.508 271.34 225.485 271.34C224.462 271.34 223.549 270.493 223.549 267.985C223.549 265.466 224.462 264.63 225.485 264.63C226.508 264.63 227.432 265.466 227.432 267.985ZM230.993 268.667C232.137 268.667 232.852 267.842 232.852 266.203C232.852 264.564 232.137 263.772 230.993 263.772C229.882 263.772 229.156 264.564 229.156 266.203C229.156 267.842 229.882 268.667 230.993 268.667ZM236.46 263.772H235.591L231.136 272.132H232.016L236.46 263.772ZM230.993 267.985C230.388 267.985 229.97 267.468 229.97 266.203C229.97 264.96 230.377 264.454 230.993 264.454C231.609 264.454 232.027 264.938 232.027 266.203C232.027 267.479 231.609 267.985 230.993 267.985ZM236.581 272.11C237.692 272.11 238.429 271.296 238.429 269.657C238.429 268.018 237.692 267.226 236.581 267.226C235.47 267.226 234.722 268.018 234.722 269.657C234.722 271.296 235.47 272.11 236.581 272.11ZM236.581 271.428C235.965 271.428 235.547 270.922 235.547 269.657C235.547 268.392 235.965 267.897 236.581 267.897C237.197 267.897 237.604 268.392 237.604 269.657C237.604 270.933 237.197 271.428 236.581 271.428Z" fill="black"/>
<path d="M267.5 263V274H269.5V263H267.5Z" fill="#E3E9ED" mask="url(#path-28-inside-4_1622_7050)"/>
<path d="M301.125 263.937H299.893V272H300.817V267.534C300.817 266.841 300.729 265.873 300.696 265.158H300.74L301.378 266.995L302.907 271.186H303.589L305.118 266.995L305.756 265.158H305.8C305.745 265.873 305.668 266.841 305.668 267.534V272H306.625V263.937H305.393L303.853 268.249C303.666 268.81 303.49 269.371 303.303 269.932H303.248C303.039 269.371 302.863 268.81 302.676 268.249L301.125 263.937ZM309.568 269.536H312.516L313.286 272H314.364L311.625 263.937H310.492L307.753 272H308.787L309.568 269.536ZM311.878 267.49L312.263 268.722H309.821L310.217 267.49C310.514 266.566 310.767 265.73 311.02 264.762H311.064C311.328 265.697 311.581 266.566 311.878 267.49ZM314.742 263.937L316.942 267.831L314.588 272H315.655L316.821 269.822C317.03 269.437 317.239 268.997 317.47 268.524H317.514C317.778 269.008 317.998 269.426 318.207 269.822L319.395 272H320.517L318.163 267.886L320.363 263.937H319.296L318.218 265.994C318.009 266.379 317.866 266.698 317.646 267.171H317.602C317.338 266.698 317.173 266.379 316.964 265.994L315.864 263.937H314.742Z" fill="black"/>
<rect x="21.5" y="255.5" width="329" height="26" rx="3.5" stroke="#E3E9ED"/>
<path d="M25.901 304.169C27.149 304.169 28.046 303.688 28.826 302.804L28.163 302.05C27.552 302.713 26.889 303.116 25.953 303.116C24.133 303.116 22.989 301.608 22.989 299.203C22.989 296.811 24.185 295.342 25.992 295.342C26.824 295.342 27.435 295.719 27.942 296.252L28.592 295.472C28.046 294.861 27.136 294.289 25.979 294.289C23.548 294.289 21.754 296.161 21.754 299.242C21.754 302.323 23.548 304.169 25.901 304.169ZM33.229 304.169C34.958 304.169 36.505 302.817 36.505 300.477C36.505 298.124 34.958 296.759 33.229 296.759C31.5 296.759 29.953 298.124 29.953 300.477C29.953 302.817 31.5 304.169 33.229 304.169ZM33.229 303.181C32.02 303.181 31.188 302.102 31.188 300.477C31.188 298.852 32.02 297.747 33.229 297.747C34.438 297.747 35.283 298.852 35.283 300.477C35.283 302.102 34.438 303.181 33.229 303.181ZM39.3448 296.941H38.3698V304H39.5528V298.878C40.2678 298.163 40.7618 297.799 41.4898 297.799C42.4258 297.799 42.8288 298.332 42.8288 299.684V304H44.0118V299.528C44.0118 297.695 43.3748 296.759 41.8538 296.759C40.8788 296.759 40.1638 297.292 39.4878 297.955H39.4488L39.3448 296.941ZM46.5251 296.941H45.2901L47.8381 304H49.2161L51.7251 296.941H50.5551L49.2161 300.958C49.0081 301.647 48.7741 302.375 48.5661 303.038H48.5141C48.2931 302.375 48.0721 301.647 47.8511 300.958L46.5251 296.941ZM55.9434 304.169C56.9314 304.169 57.6594 303.844 58.2834 303.441L57.8544 302.661C57.3344 303.012 56.7754 303.22 56.0864 303.22C54.7344 303.22 53.8374 302.271 53.7464 300.75H58.5044C58.5434 300.581 58.5564 300.334 58.5564 300.074C58.5564 298.059 57.5424 296.759 55.7484 296.759C54.1104 296.759 52.5634 298.189 52.5634 300.477C52.5634 302.817 54.0714 304.169 55.9434 304.169ZM57.5164 299.905H53.7334C53.8764 298.514 54.7604 297.708 55.7614 297.708C56.8664 297.708 57.5164 298.436 57.5164 299.905ZM61.2696 296.941H60.2946V304H61.4776V299.463C61.9326 298.254 62.6866 297.838 63.2586 297.838C63.5576 297.838 63.7006 297.864 63.9476 297.955L64.1686 296.915C63.9476 296.798 63.7266 296.759 63.4146 296.759C62.6216 296.759 61.9196 297.331 61.4126 298.228H61.3736L61.2696 296.941ZM67.5577 304.169C67.9867 304.169 68.4547 304.052 68.8577 303.909L68.6237 303.025C68.3767 303.116 68.0647 303.207 67.8177 303.207C66.9857 303.207 66.7257 302.726 66.7257 301.842V297.903H68.6367V296.941H66.7257V294.965H65.7377L65.5947 296.941L64.4897 297.006V297.903H65.5427V301.816C65.5427 303.233 66.0497 304.169 67.5577 304.169ZM73.0821 304.169C74.0701 304.169 74.7981 303.844 75.4221 303.441L74.9931 302.661C74.4731 303.012 73.9141 303.22 73.2251 303.22C71.8731 303.22 70.9761 302.271 70.8851 300.75H75.6431C75.6821 300.581 75.6951 300.334 75.6951 300.074C75.6951 298.059 74.6811 296.759 72.8871 296.759C71.2491 296.759 69.7021 298.189 69.7021 300.477C69.7021 302.817 71.2101 304.169 73.0821 304.169ZM74.6551 299.905H70.8721C71.0151 298.514 71.8991 297.708 72.9001 297.708C74.0051 297.708 74.6551 298.436 74.6551 299.905ZM79.8383 304.169C80.6833 304.169 81.4243 303.727 81.9833 303.168H82.0093L82.1263 304H83.0883V293.652H81.9053V296.369L81.9703 297.591C81.3463 297.071 80.8133 296.759 79.9813 296.759C78.3693 296.759 76.9263 298.189 76.9263 300.477C76.9263 302.83 78.0703 304.169 79.8383 304.169ZM80.0983 303.181C78.8503 303.181 78.1483 302.193 78.1483 300.464C78.1483 298.852 79.0453 297.76 80.1893 297.76C80.7743 297.76 81.2943 297.968 81.9053 298.501V302.206C81.3203 302.869 80.7613 303.181 80.0983 303.181ZM88.6101 296.941H87.3751L89.9231 304H91.3011L93.8101 296.941H92.6401L91.3011 300.958C91.0931 301.647 90.8591 302.375 90.6511 303.038H90.5991C90.3781 302.375 90.1571 301.647 89.9361 300.958L88.6101 296.941ZM96.5014 304.169C97.3854 304.169 98.1784 303.805 98.8544 303.246H98.8934L98.9974 304H99.9724V299.658C99.9724 297.929 99.2444 296.759 97.5284 296.759C96.3844 296.759 95.3444 297.175 94.6814 297.591L95.1494 298.436C95.7084 298.059 96.5014 297.747 97.3334 297.747C98.4904 297.747 98.7894 298.618 98.7894 299.528C95.9944 299.567 94.4474 300.282 94.4474 302.102C94.4474 303.389 95.3184 304.169 96.5014 304.169ZM96.8394 303.22C96.1114 303.22 95.6044 302.856 95.6044 302.024C95.6044 300.932 96.2804 300.477 98.7894 300.308V302.401C98.1004 303.012 97.5284 303.22 96.8394 303.22ZM102.227 293.652V304H103.41V293.652H102.227ZM107.836 304.169C108.811 304.169 109.513 303.662 110.176 302.895H110.215L110.306 304H111.294V296.941H110.111V301.946C109.435 302.791 108.928 303.142 108.2 303.142C107.264 303.142 106.874 302.583 106.874 301.27V296.941H105.691V301.413C105.691 303.246 106.315 304.169 107.836 304.169ZM116.525 304.169C117.513 304.169 118.241 303.844 118.865 303.441L118.436 302.661C117.916 303.012 117.357 303.22 116.668 303.22C115.316 303.22 114.419 302.271 114.328 300.75H119.086C119.125 300.581 119.138 300.334 119.138 300.074C119.138 298.059 118.124 296.759 116.33 296.759C114.692 296.759 113.145 298.189 113.145 300.477C113.145 302.817 114.653 304.169 116.525 304.169ZM118.098 299.905H114.315C114.458 298.514 115.342 297.708 116.343 297.708C117.448 297.708 118.098 298.436 118.098 299.905Z" fill="#B4BDC2"/>
<path d="M305.575 301.816C305.588 301.66 305.601 301.517 305.601 301.374C305.601 300.074 304.587 299.372 303.508 298.917L302.91 298.696V295.407C303.534 295.446 304.106 295.784 304.561 296.2L305.094 295.537C304.418 294.861 303.846 294.575 302.91 294.471V293.405H302.104V294.471C300.765 294.523 299.478 295.394 299.4 296.811C299.361 297.396 299.712 298.319 300.375 298.696C300.7 298.904 301.038 299.06 301.389 299.216L302.104 299.489V303.012C301.311 302.973 300.258 302.544 299.738 301.92L299.101 302.739C299.881 303.571 300.999 303.974 302.104 304.026V305.118H302.91V304C304.197 303.831 305.367 303.181 305.575 301.816ZM302.104 295.394V298.449L301.844 298.371C301.116 298.098 301.012 298.007 300.804 297.799C300.492 297.539 300.388 297.162 300.388 296.759C300.388 295.901 301.35 295.433 302.104 295.394ZM302.91 302.999V299.762C303.482 299.957 304.106 300.191 304.431 300.75C304.587 301.075 304.587 301.231 304.587 301.426V301.556C304.496 302.531 303.833 302.96 302.91 302.999ZM310.206 297.032L311.389 297.227C311.389 296.161 312.182 295.355 313.274 295.355C314.275 295.355 314.977 295.888 314.977 296.98C314.977 297.968 314.379 298.657 312.702 298.696V299.554C314.743 299.554 315.172 300.308 315.172 301.335C315.172 302.18 314.509 303.142 313.144 303.142C312.156 303.142 311.571 302.635 311.168 301.803C311.064 301.556 310.999 301.361 310.973 301.218L309.907 301.66C310.362 303.064 311.103 304.169 313.157 304.169C314.938 304.169 316.381 303.051 316.381 301.309C316.381 300.113 315.731 299.32 314.483 299.008C315.523 298.657 316.16 298.033 316.16 296.785C316.16 295.329 314.99 294.315 313.339 294.315C311.714 294.315 310.453 295.303 310.206 297.032ZM324.112 304V302.947H320.355C320.03 302.947 319.64 302.999 319.276 303.103L321.941 300.464C323.02 299.385 323.93 298.397 323.93 296.98C323.93 295.29 322.669 294.302 321.044 294.302C319.419 294.302 318.158 295.251 317.911 297.006L319.081 297.201C319.081 296.109 319.887 295.329 320.979 295.329C321.967 295.329 322.695 295.862 322.734 297.006C322.734 298.124 322.006 298.943 321.005 300.009L317.716 303.168V304H324.112ZM326.5 302.96H325.317V304.182H326.5V302.96ZM332.513 300.217L329.549 304H331.044L333.657 300.399C334.385 299.398 334.801 298.527 334.801 297.396C334.801 295.537 333.566 294.237 331.694 294.237C329.796 294.237 328.457 295.602 328.457 297.305C328.457 299.112 329.705 300.1 331.2 300.1C331.915 300.1 332.526 299.892 333.033 299.489C332.942 299.606 332.786 299.853 332.513 300.217ZM329.666 297.214C329.666 296.057 330.472 295.264 331.681 295.264C332.799 295.264 333.644 296.005 333.644 297.253C333.644 298.254 332.89 299.164 331.59 299.164C330.394 299.164 329.666 298.475 329.666 297.214ZM342.35 304V303.038H340.478V294.419H339.529L336.968 296.629L337.605 297.396L339.334 295.849C339.321 295.94 339.321 296.057 339.321 296.174V303.038H337.202V304H342.35ZM350.653 299.255C350.653 295.862 349.119 294.315 347.156 294.315C345.18 294.315 343.659 295.862 343.659 299.255C343.659 302.635 345.18 304.182 347.156 304.182C349.119 304.182 350.653 302.635 350.653 299.255ZM349.457 299.255C349.457 302.219 348.365 303.22 347.156 303.22C345.947 303.22 344.868 302.219 344.868 299.255C344.868 296.278 345.947 295.29 347.156 295.29C348.365 295.29 349.457 296.278 349.457 299.255Z" fill="black"/>
<rect x="21" y="369" width="330" height="52" rx="26" fill="#1BC100"/>
<path d="M169.625 401.16C168.825 401.16 168.084 401.016 167.401 400.728C166.718 400.44 166.121 400.04 165.609 399.528C165.108 399.005 164.718 398.392 164.441 397.688C164.164 396.984 164.025 396.216 164.025 395.384C164.025 394.552 164.164 393.784 164.441 393.08C164.718 392.376 165.108 391.768 165.609 391.256C166.121 390.733 166.718 390.328 167.401 390.04C168.084 389.752 168.825 389.608 169.625 389.608C170.436 389.608 171.182 389.752 171.865 390.04C172.548 390.328 173.14 390.733 173.641 391.256C174.142 391.779 174.532 392.392 174.809 393.096C175.086 393.789 175.225 394.552 175.225 395.384C175.225 396.205 175.086 396.968 174.809 397.672C174.532 398.376 174.142 398.989 173.641 399.512C173.14 400.035 172.548 400.44 171.865 400.728C171.182 401.016 170.436 401.16 169.625 401.16ZM169.625 399.176C170.137 399.176 170.601 399.085 171.017 398.904C171.444 398.712 171.812 398.445 172.121 398.104C172.43 397.752 172.67 397.347 172.841 396.888C173.022 396.429 173.113 395.928 173.113 395.384C173.113 394.84 173.022 394.339 172.841 393.88C172.67 393.421 172.43 393.021 172.121 392.68C171.812 392.328 171.444 392.061 171.017 391.88C170.601 391.688 170.137 391.592 169.625 391.592C169.124 391.592 168.66 391.688 168.233 391.88C167.806 392.061 167.438 392.323 167.129 392.664C166.82 393.005 166.58 393.405 166.409 393.864C166.238 394.323 166.153 394.829 166.153 395.384C166.153 395.928 166.238 396.435 166.409 396.904C166.58 397.363 166.82 397.763 167.129 398.104C167.438 398.445 167.806 398.712 168.233 398.904C168.66 399.085 169.124 399.176 169.625 399.176ZM177.129 401V392.568H179.065L179.097 395.256L178.825 394.648C178.942 394.221 179.145 393.837 179.433 393.496C179.721 393.155 180.051 392.888 180.425 392.696C180.809 392.493 181.209 392.392 181.625 392.392C181.806 392.392 181.977 392.408 182.137 392.44C182.307 392.472 182.446 392.509 182.553 392.552L182.025 394.712C181.907 394.648 181.763 394.595 181.593 394.552C181.422 394.509 181.251 394.488 181.081 394.488C180.814 394.488 180.558 394.541 180.313 394.648C180.078 394.744 179.87 394.883 179.689 395.064C179.507 395.245 179.363 395.459 179.257 395.704C179.161 395.939 179.113 396.205 179.113 396.504V401H177.129ZM186.896 401.16C186.149 401.16 185.477 400.973 184.88 400.6C184.293 400.216 183.824 399.699 183.472 399.048C183.13 398.387 182.96 397.629 182.96 396.776C182.96 395.933 183.13 395.181 183.472 394.52C183.813 393.859 184.277 393.341 184.864 392.968C185.461 392.584 186.133 392.392 186.88 392.392C187.285 392.392 187.674 392.456 188.048 392.584C188.432 392.712 188.773 392.888 189.072 393.112C189.37 393.325 189.605 393.565 189.776 393.832C189.957 394.099 190.058 394.376 190.08 394.664L189.552 394.728V389.16H191.52V401H189.616L189.568 399.016L189.952 399.048C189.941 399.315 189.845 399.571 189.664 399.816C189.493 400.061 189.269 400.285 188.992 400.488C188.714 400.691 188.389 400.856 188.016 400.984C187.653 401.101 187.28 401.16 186.896 401.16ZM187.28 399.496C187.738 399.496 188.144 399.379 188.496 399.144C188.848 398.909 189.12 398.589 189.312 398.184C189.514 397.779 189.616 397.309 189.616 396.776C189.616 396.253 189.514 395.789 189.312 395.384C189.12 394.968 188.848 394.648 188.496 394.424C188.144 394.189 187.738 394.072 187.28 394.072C186.821 394.072 186.416 394.189 186.064 394.424C185.712 394.648 185.434 394.968 185.232 395.384C185.04 395.789 184.944 396.253 184.944 396.776C184.944 397.309 185.04 397.779 185.232 398.184C185.434 398.589 185.712 398.909 186.064 399.144C186.416 399.379 186.821 399.496 187.28 399.496ZM197.706 401.16C196.82 401.16 196.036 400.973 195.354 400.6C194.682 400.227 194.154 399.72 193.77 399.08C193.396 398.429 193.21 397.688 193.21 396.856C193.21 396.195 193.316 395.592 193.53 395.048C193.743 394.504 194.036 394.035 194.41 393.64C194.794 393.235 195.247 392.925 195.77 392.712C196.303 392.488 196.884 392.376 197.514 392.376C198.068 392.376 198.586 392.483 199.066 392.696C199.546 392.909 199.962 393.203 200.314 393.576C200.666 393.939 200.932 394.376 201.114 394.888C201.306 395.389 201.396 395.939 201.386 396.536L201.37 397.224H194.538L194.17 395.88H199.722L199.466 396.152V395.8C199.434 395.469 199.327 395.181 199.146 394.936C198.964 394.68 198.73 394.483 198.442 394.344C198.164 394.195 197.855 394.12 197.514 394.12C196.991 394.12 196.548 394.221 196.186 394.424C195.834 394.627 195.567 394.92 195.386 395.304C195.204 395.677 195.114 396.147 195.114 396.712C195.114 397.256 195.226 397.731 195.45 398.136C195.684 398.541 196.01 398.856 196.426 399.08C196.852 399.293 197.348 399.4 197.914 399.4C198.308 399.4 198.671 399.336 199.002 399.208C199.332 399.08 199.69 398.851 200.074 398.52L201.05 399.88C200.762 400.147 200.431 400.376 200.058 400.568C199.695 400.749 199.311 400.893 198.906 401C198.5 401.107 198.1 401.16 197.706 401.16ZM203.129 401V392.568H205.065L205.097 395.256L204.825 394.648C204.942 394.221 205.145 393.837 205.433 393.496C205.721 393.155 206.051 392.888 206.425 392.696C206.809 392.493 207.209 392.392 207.625 392.392C207.806 392.392 207.977 392.408 208.137 392.44C208.307 392.472 208.446 392.509 208.553 392.552L208.025 394.712C207.907 394.648 207.763 394.595 207.593 394.552C207.422 394.509 207.251 394.488 207.081 394.488C206.814 394.488 206.558 394.541 206.313 394.648C206.078 394.744 205.87 394.883 205.689 395.064C205.507 395.245 205.363 395.459 205.257 395.704C205.161 395.939 205.113 396.205 205.113 396.504V401H203.129Z" fill="white"/>
<path d="M12 0.5H360C366.351 0.5 371.5 5.64873 371.5 12V406C371.5 425.606 355.606 441.5 336 441.5H36C16.3939 441.5 0.5 425.606 0.5 406V12C0.5 5.64873 5.64873 0.5 12 0.5Z" stroke="#E3E9ED"/>
</svg>
