<svg width="161" height="32" viewBox="0 0 161 32" fill="none" xmlns="http://www.w3.org/2000/svg">
<g id="Group">
<path id="BETA" d="M137.216 8L138.363 1.09091H141.058C141.562 1.09091 141.968 1.1685 142.276 1.32369C142.587 1.47662 142.803 1.68803 142.924 1.95792C143.048 2.22556 143.08 2.53143 143.022 2.87553C142.975 3.14992 142.88 3.38719 142.738 3.58736C142.597 3.78752 142.424 3.9517 142.219 4.0799C142.014 4.20585 141.794 4.29581 141.558 4.34979L141.544 4.41726C141.794 4.4285 142.021 4.50272 142.226 4.63991C142.43 4.77711 142.584 4.9694 142.688 5.2168C142.791 5.46419 142.815 5.76107 142.759 6.10742C142.698 6.46727 142.555 6.79001 142.33 7.07564C142.108 7.36127 141.806 7.5873 141.426 7.75373C141.048 7.91791 140.598 8 140.077 8H137.216ZM138.741 6.89347H140.023C140.455 6.89347 140.783 6.81025 141.008 6.64382C141.233 6.47514 141.367 6.25698 141.409 5.98935C141.443 5.78918 141.424 5.61038 141.352 5.45295C141.282 5.29551 141.164 5.17182 140.998 5.08185C140.834 4.99189 140.627 4.94691 140.377 4.94691H139.061L138.741 6.89347ZM139.22 4.00906H140.397C140.604 4.00906 140.798 3.97195 140.977 3.89773C141.157 3.82126 141.307 3.71218 141.426 3.57049C141.545 3.4288 141.62 3.26125 141.649 3.06783C141.692 2.80694 141.634 2.5944 141.477 2.43022C141.322 2.26604 141.07 2.18395 140.721 2.18395H139.52L139.22 4.00906ZM143.228 8L144.375 1.09091H148.936L148.747 2.20419H145.526L145.232 3.98544H148.221L148.032 5.09872H145.046L144.753 6.88672H147.995L147.809 8H143.228ZM149.442 2.20419L149.627 1.09091H155.207L155.018 2.20419H152.893L151.932 8H150.609L151.567 2.20419H149.442ZM154.984 8H153.554L157.116 1.09091H158.796L160.065 8H158.635L157.744 2.57528H157.69L154.984 8ZM155.423 5.28764H159.087L158.908 6.35032H155.241L155.423 5.28764Z" fill="#0B48C8"/>
<g id="Group_2">
<path id="Vector" d="M108.436 25.4173C103.482 25.4173 99.4512 21.3861 99.4512 16.4323C99.4512 11.4784 103.482 7.44727 108.436 7.44727C113.39 7.44727 117.421 11.4784 117.421 16.4323C117.421 21.3861 113.39 25.4173 108.436 25.4173ZM108.436 10.7639C105.31 10.7639 102.768 13.3063 102.768 16.4323C102.768 19.5582 105.31 22.1006 108.436 22.1006C111.562 22.1006 114.105 19.5582 114.105 16.4323C114.105 13.3063 111.562 10.7639 108.436 10.7639Z" fill="black"/>
<path id="Vector_2" d="M79.4065 8.27246H76.0898V24.2225H79.4065V8.27246Z" fill="black"/>
<path id="Vector_3" d="M65.7535 25.2325C64.5282 25.2325 63.3203 24.9138 62.2623 24.3098C60.0633 23.0554 58.6982 20.7051 58.6982 18.1772V8.27246H62.0149V18.1772C62.0149 20.2394 63.6928 21.9159 65.7535 21.9159C67.8142 21.9159 69.4922 20.2379 69.4922 18.1772V8.27246H72.8088V18.1772C72.8088 20.7051 71.4437 23.0554 69.2448 24.3098C68.1868 24.9138 66.9789 25.2325 65.7535 25.2325Z" fill="black"/>
<path id="Vector_4" d="M93.4809 24.2217V14.317C93.4809 12.2548 91.803 10.5783 89.7423 10.5783C87.6816 10.5783 86.0036 12.2563 86.0036 14.317V24.2217H82.687V14.317C82.687 11.7891 84.0521 9.43884 86.251 8.18438C87.309 7.58043 88.5169 7.26172 89.7423 7.26172C90.9676 7.26172 92.1755 7.58043 93.2335 8.18438C95.4325 9.43884 96.7976 11.7891 96.7976 14.317V24.2217H93.4809Z" fill="black"/>
<path id="Vector_5" d="M130.436 8.18438C129.378 7.58043 128.17 7.26172 126.944 7.26172C125.719 7.26172 124.511 7.58043 123.453 8.18438C121.254 9.43884 119.889 11.7891 119.889 14.317V24.2217H123.206V19.0583H130.683V24.2217H134V14.317C134 11.7891 132.635 9.43884 130.436 8.18438V8.18438ZM123.206 15.7417V14.317C123.206 12.2548 124.884 10.5783 126.944 10.5783C129.005 10.5783 130.683 12.2563 130.683 14.317V15.7417H123.206V15.7417Z" fill="black"/>
<path id="Vector_6" d="M56.462 23.2908L54.6196 21.4484C55.6237 19.9902 56.2131 18.2249 56.2131 16.3229C56.2131 11.3268 52.147 7.26074 47.1495 7.26074C42.152 7.26074 38.0874 11.3268 38.0874 16.3229C38.0874 21.3189 42.1535 25.3865 47.1495 25.3865C49.0501 25.3865 50.8154 24.7971 52.2751 23.7929L54.1175 25.6353L56.462 23.2908V23.2908ZM47.151 22.0713C43.977 22.0713 41.4055 19.4983 41.4055 16.3258C41.4055 13.1532 43.9784 10.5803 47.151 10.5803C50.3235 10.5803 52.8965 13.1532 52.8965 16.3258C52.8965 17.3096 52.6491 18.2351 52.214 19.0443L50.6757 17.506L48.3312 19.8505L49.8695 21.3888C49.0603 21.8239 48.1348 22.0713 47.151 22.0713V22.0713Z" fill="black"/>
</g>
<g id="Group_3">
<path id="Vector_7" d="M26.6668 4.31234C25.5681 3.34748 24.35 2.56598 23.0141 1.96495C20.9897 1.05975 18.4022 0.570773 15.8322 0.500919C15.6182 0.495098 15.4029 0.492188 15.1846 0.492188C12.3555 0.492188 9.84362 0.991354 7.64904 1.98969C6.33781 2.58636 5.14011 3.35912 4.05591 4.3138C1.15842 6.86056 0 10.2761 0 14.5605V17.4391C0 21.7235 1.15842 25.1391 4.05737 27.6859C5.14156 28.6405 6.33927 29.4133 7.65049 30.01C9.84508 31.0068 12.3569 31.5075 15.186 31.5075C15.4029 31.5075 15.6197 31.5045 15.8336 31.4987C18.4037 31.4289 20.9912 30.9399 23.0155 30.0332C24.3515 29.4337 25.5696 28.6522 26.6683 27.6859C29.5658 25.1391 31.0153 21.7235 31.0153 17.4391V14.5605C31.0153 10.2761 29.5658 6.86056 26.6683 4.3138L26.6668 4.31234ZM23.26 16.8046V16.9691C23.2338 18.6659 22.8045 20.0761 21.9735 21.1967C21.796 21.4383 21.5995 21.6653 21.3827 21.8807C20.233 23.0231 18.1985 23.6416 15.8613 23.7347C15.6503 23.7435 15.4349 23.7478 15.2151 23.7478C12.5519 23.7478 10.5946 23.125 9.34155 21.8792C9.12616 21.6638 8.9297 21.4383 8.7507 21.1952C7.91972 20.0732 7.49041 18.663 7.46421 16.9676V15.1863C7.46421 13.4152 7.89353 11.9512 8.7507 10.7928C8.9297 10.5512 9.12616 10.3242 9.34155 10.1088C10.5946 8.86305 12.5519 8.24018 15.2151 8.24018C15.4349 8.24018 15.6503 8.24455 15.8613 8.25328C18.1985 8.34788 20.233 8.96492 21.3827 10.1073C21.598 10.3227 21.7945 10.5483 21.9735 10.7913C22.8321 11.9497 23.2615 13.4138 23.2615 15.1849V16.8046H23.26Z" fill="#0D98FF"/>
<path id="Vector_8" opacity="0.14" d="M26.6668 4.31234C25.5681 3.34748 24.35 2.56598 23.0141 1.96495C20.9897 1.05975 18.4022 0.570773 15.8322 0.500919C15.6182 0.495098 15.4029 0.492188 15.1846 0.492188C12.3555 0.492188 9.84362 0.991354 7.64904 1.98969C6.33781 2.58636 5.14011 3.35912 4.05591 4.3138C1.15842 6.86056 0 10.2761 0 14.5605V17.4391C0 21.7235 1.15842 25.1391 4.05737 27.6859C5.14156 28.6405 6.33927 29.4133 7.65049 30.01C9.84508 31.0068 12.3569 31.5075 15.186 31.5075C15.4029 31.5075 15.6197 31.5045 15.8336 31.4987C18.4037 31.4289 20.9912 30.9399 23.0155 30.0332C24.3515 29.4337 25.5696 28.6522 26.6683 27.6859C29.5658 25.1391 31.0153 21.7235 31.0153 17.4391V14.5605C31.0153 10.2761 29.5658 6.86056 26.6683 4.3138L26.6668 4.31234ZM23.26 16.8046V16.9691C23.2338 18.6659 22.8045 20.0761 21.9735 21.1967C21.796 21.4383 21.5995 21.6653 21.3827 21.8807C20.233 23.0231 18.1985 23.6416 15.8613 23.7347C15.6503 23.7435 15.4349 23.7478 15.2151 23.7478C12.5519 23.7478 10.5946 23.125 9.34155 21.8792C9.12616 21.6638 8.9297 21.4383 8.7507 21.1952C7.91972 20.0732 7.49041 18.663 7.46421 16.9676V15.1863C7.46421 13.4152 7.89353 11.9512 8.7507 10.7928C8.9297 10.5512 9.12616 10.3242 9.34155 10.1088C10.5946 8.86305 12.5519 8.24018 15.2151 8.24018C15.4349 8.24018 15.6503 8.24455 15.8613 8.25328C18.1985 8.34788 20.233 8.96492 21.3827 10.1073C21.598 10.3227 21.7945 10.5483 21.9735 10.7913C22.8321 11.9497 23.2615 13.4138 23.2615 15.1849V16.8046H23.26Z" fill="url(#paint0_linear_2035_3537)"/>
<path id="Vector_9" d="M24.8021 8.71314C24.5213 8.33185 24.204 7.96511 23.8591 7.62166C22.072 5.84475 19.2356 4.87843 16.0107 4.74745C15.7531 4.73581 15.4926 4.73145 15.2147 4.73145C11.6012 4.73145 8.79243 5.70358 6.86126 7.62166C6.52072 7.9622 6.20492 8.32603 5.92405 8.70586C4.61282 10.4755 3.94775 12.6584 3.94775 15.1907V17.0258C3.98559 19.4649 4.64921 21.5736 5.92405 23.2908C6.20492 23.6707 6.51926 24.0345 6.86126 24.3765C8.79098 26.2946 11.6012 27.2667 15.2147 27.2667C15.4926 27.2667 15.7531 27.2609 16.0049 27.2507C19.2371 27.1212 22.072 26.1534 23.8606 24.3765C24.2055 24.0345 24.5213 23.6678 24.7978 23.2923C26.0712 21.5736 26.7377 19.4649 26.7741 17.0331V15.1921C26.7741 12.6599 26.109 10.4784 24.8021 8.71459V8.71314ZM23.2595 16.806V16.9705C23.2333 18.6674 22.804 20.0775 21.9731 21.1981C21.7955 21.4397 21.599 21.6667 21.3822 21.8821C20.2325 23.0245 18.198 23.643 15.8608 23.7362C15.6498 23.7449 15.4344 23.7493 15.2147 23.7493C12.5515 23.7493 10.5941 23.1264 9.34108 21.8807C9.1257 21.6653 8.92923 21.4397 8.75023 21.1967C7.91926 20.0746 7.48994 18.6645 7.46375 16.969V15.1877C7.46375 13.4167 7.89306 11.9526 8.75023 10.7942C8.92923 10.5526 9.1257 10.3256 9.34108 10.1102C10.5941 8.86449 12.5515 8.24162 15.2147 8.24162C15.4344 8.24162 15.6498 8.24599 15.8608 8.25472C18.198 8.34931 20.2325 8.96636 21.3822 10.1088C21.5976 10.3241 21.794 10.5497 21.9731 10.7928C22.8317 11.9512 23.261 13.4152 23.261 15.1863V16.806H23.2595Z" fill="url(#paint1_linear_2035_3537)"/>
<path id="Vector_10" opacity="0.25" d="M14.4251 27.3018C11.1812 27.1708 8.62426 26.1987 6.82697 24.413C6.48061 24.0696 6.16336 23.7028 5.88394 23.323C4.60328 21.5941 3.9353 19.4781 3.89746 17.0332V15.1908C3.89746 12.647 4.56399 10.4582 5.87957 8.68273C6.16045 8.30144 6.47916 7.9318 6.82697 7.58544C8.62281 5.79979 11.1783 4.82765 14.4193 4.69667C14.671 4.68503 14.933 4.68066 15.2182 4.68066C18.8448 4.68066 21.9577 5.65862 23.899 7.58544C24.241 7.92743 24.5583 8.29416 24.8421 8.67545C26.1606 10.4538 26.8286 12.6455 26.8286 15.1908V17.0274C26.7907 19.4781 26.1227 21.5956 24.8435 23.3216C24.5627 23.7028 24.2454 24.0696 23.9005 24.413C21.9606 26.3413 18.8477 27.3178 15.2197 27.3178C14.933 27.3178 14.6739 27.312 14.428 27.3018H14.4251V27.3018ZM14.4236 4.79854C11.2089 4.92806 8.67665 5.89001 6.89974 7.65674C6.55483 7.99874 6.23903 8.36402 5.96253 8.7424C4.66004 10.4989 4.00079 12.6688 4.00079 15.1894V17.0303C4.03717 19.4519 4.69933 21.549 5.96689 23.2604C6.2434 23.6359 6.55774 23.9983 6.89974 24.3388C8.67811 26.1055 11.2118 27.0675 14.4294 27.1985C14.6739 27.2101 14.9315 27.2145 15.2168 27.2145C18.8157 27.2145 21.9053 26.2467 23.8248 24.3388C24.1654 23.9997 24.4783 23.6359 24.7577 23.259C26.0252 21.5505 26.6859 19.4534 26.7238 17.0245V15.1879C26.7238 12.6659 26.0616 10.4946 24.7577 8.73366C24.4783 8.35529 24.1639 7.99292 23.8248 7.65529C21.9038 5.7474 18.8157 4.77962 15.2168 4.77962C14.933 4.77962 14.6739 4.78545 14.4236 4.79563V4.79854V4.79854ZM14.5691 23.7902C12.229 23.6956 10.4579 23.0669 9.30534 21.9201C9.08268 21.6989 8.88767 21.4733 8.71012 21.2303C7.87478 20.1053 7.4382 18.6719 7.41346 16.9634V15.1894C7.41346 13.4154 7.85005 11.9266 8.71158 10.7653C8.88913 10.5237 9.08414 10.2981 9.3068 10.0754C10.4608 8.92867 12.2319 8.29999 14.5706 8.20539C14.7773 8.19666 14.9883 8.19229 15.2197 8.19229C17.8843 8.19229 20.1648 8.82535 21.4207 10.0754C21.6419 10.2967 21.8369 10.5208 22.0174 10.7653C22.8789 11.9266 23.314 13.4154 23.314 15.1894V16.9721C23.2878 18.6719 22.8527 20.1039 22.0174 21.2303C21.8369 21.4733 21.6419 21.6989 21.4207 21.9201C20.1633 23.1702 17.8843 23.8033 15.2197 23.8033C14.9897 23.8033 14.7773 23.7989 14.5721 23.7902H14.5691Z" fill="url(#paint2_linear_2035_3537)"/>
</g>
</g>
<defs>
<linearGradient id="paint0_linear_2035_3537" x1="5.22451" y1="0.962248" x2="25.0005" y2="30.2195" gradientUnits="userSpaceOnUse">
<stop stop-color="white"/>
<stop offset="0.04" stop-color="white" stop-opacity="0.82"/>
<stop offset="0.09" stop-color="white" stop-opacity="0.66"/>
<stop offset="0.13" stop-color="white" stop-opacity="0.51"/>
<stop offset="0.19" stop-color="white" stop-opacity="0.38"/>
<stop offset="0.25" stop-color="white" stop-opacity="0.27"/>
<stop offset="0.31" stop-color="white" stop-opacity="0.19"/>
<stop offset="0.39" stop-color="white" stop-opacity="0.12"/>
<stop offset="0.49" stop-color="white" stop-opacity="0.07"/>
<stop offset="0.62" stop-color="white" stop-opacity="0.05"/>
<stop offset="1" stop-color="white" stop-opacity="0.04"/>
</linearGradient>
<linearGradient id="paint1_linear_2035_3537" x1="15.3602" y1="4.5277" x2="15.3602" y2="27.0295" gradientUnits="userSpaceOnUse">
<stop stop-color="#0940C3"/>
<stop offset="0.17" stop-color="#0A47C9" stop-opacity="0.87"/>
<stop offset="0.53" stop-color="#0D5BDB" stop-opacity="0.52"/>
<stop offset="1" stop-color="#1378F4" stop-opacity="0.04"/>
</linearGradient>
<linearGradient id="paint2_linear_2035_3537" x1="19.7631" y1="27.0849" x2="16.9951" y2="20.1112" gradientUnits="userSpaceOnUse">
<stop stop-color="white"/>
<stop offset="0.82" stop-color="white" stop-opacity="0.21"/>
<stop offset="1" stop-color="white" stop-opacity="0.04"/>
</linearGradient>
</defs>
</svg>
