<svg width="134" height="32" viewBox="0 0 134 32" fill="none" xmlns="http://www.w3.org/2000/svg">
<path d="M108.436 25.4168C103.482 25.4168 99.4512 21.3856 99.4512 16.4318C99.4512 11.4779 103.482 7.44678 108.436 7.44678C113.39 7.44678 117.421 11.4779 117.421 16.4318C117.421 21.3856 113.39 25.4168 108.436 25.4168ZM108.436 10.7634C105.31 10.7634 102.768 13.3058 102.768 16.4318C102.768 19.5578 105.31 22.1002 108.436 22.1002C111.562 22.1002 114.105 19.5578 114.105 16.4318C114.105 13.3058 111.562 10.7634 108.436 10.7634Z" fill="black"/>
<path d="M79.4062 8.27246H76.0896V24.2225H79.4062V8.27246Z" fill="black"/>
<path d="M65.7535 25.2325C64.5282 25.2325 63.3203 24.9138 62.2623 24.3098C60.0633 23.0554 58.6982 20.7051 58.6982 18.1772V8.27246H62.0149V18.1772C62.0149 20.2394 63.6928 21.9159 65.7535 21.9159C67.8142 21.9159 69.4922 20.2379 69.4922 18.1772V8.27246H72.8088V18.1772C72.8088 20.7051 71.4437 23.0554 69.2448 24.3098C68.1868 24.9138 66.9789 25.2325 65.7535 25.2325Z" fill="black"/>
<path d="M93.4812 24.2222V14.3175C93.4812 12.2553 91.8032 10.5788 89.7425 10.5788C87.6818 10.5788 86.0039 12.2568 86.0039 14.3175V24.2222H82.6873V14.3175C82.6873 11.7896 84.0523 9.43933 86.2513 8.18486C87.3093 7.58092 88.5172 7.26221 89.7425 7.26221C90.9679 7.26221 92.1758 7.58092 93.2338 8.18486C95.4327 9.43933 96.7978 11.7896 96.7978 14.3175V24.2222H93.4812Z" fill="black"/>
<path d="M130.436 8.18486C129.378 7.58092 128.17 7.26221 126.944 7.26221C125.719 7.26221 124.511 7.58092 123.453 8.18486C121.254 9.43933 119.889 11.7896 119.889 14.3175V24.2222H123.206V19.0588H130.683V24.2222H134V14.3175C134 11.7896 132.635 9.43933 130.436 8.18486V8.18486ZM123.206 15.7422V14.3175C123.206 12.2553 124.884 10.5788 126.944 10.5788C129.005 10.5788 130.683 12.2568 130.683 14.3175V15.7422H123.206V15.7422Z" fill="black"/>
<path d="M56.462 23.2908L54.6196 21.4484C55.6237 19.9902 56.2131 18.2249 56.2131 16.3229C56.2131 11.3268 52.147 7.26074 47.1495 7.26074C42.152 7.26074 38.0874 11.3268 38.0874 16.3229C38.0874 21.3189 42.1535 25.3865 47.1495 25.3865C49.0501 25.3865 50.8154 24.7971 52.2751 23.7929L54.1175 25.6353L56.462 23.2908V23.2908ZM47.151 22.0713C43.977 22.0713 41.4055 19.4983 41.4055 16.3258C41.4055 13.1532 43.9784 10.5803 47.151 10.5803C50.3235 10.5803 52.8965 13.1532 52.8965 16.3258C52.8965 17.3096 52.6491 18.2351 52.214 19.0443L50.6757 17.506L48.3312 19.8505L49.8695 21.3888C49.0603 21.8239 48.1348 22.0713 47.151 22.0713V22.0713Z" fill="black"/>
<path d="M26.6668 4.31234C25.5681 3.34748 24.35 2.56598 23.0141 1.96495C20.9897 1.05975 18.4022 0.570773 15.8322 0.500919C15.6182 0.495098 15.4029 0.492188 15.1846 0.492188C12.3555 0.492188 9.84362 0.991354 7.64904 1.98969C6.33781 2.58636 5.14011 3.35912 4.05591 4.3138C1.15842 6.86056 0 10.2761 0 14.5605V17.4391C0 21.7235 1.15842 25.1391 4.05737 27.6859C5.14156 28.6405 6.33927 29.4133 7.65049 30.01C9.84508 31.0068 12.3569 31.5075 15.186 31.5075C15.4029 31.5075 15.6197 31.5045 15.8336 31.4987C18.4037 31.4289 20.9912 30.9399 23.0155 30.0332C24.3515 29.4337 25.5696 28.6522 26.6683 27.6859C29.5658 25.1391 31.0153 21.7235 31.0153 17.4391V14.5605C31.0153 10.2761 29.5658 6.86056 26.6683 4.3138L26.6668 4.31234ZM23.26 16.8046V16.9691C23.2338 18.6659 22.8045 20.0761 21.9735 21.1967C21.796 21.4383 21.5995 21.6653 21.3827 21.8807C20.233 23.0231 18.1985 23.6416 15.8613 23.7347C15.6503 23.7435 15.4349 23.7478 15.2151 23.7478C12.5519 23.7478 10.5946 23.125 9.34155 21.8792C9.12616 21.6638 8.9297 21.4383 8.7507 21.1952C7.91972 20.0732 7.49041 18.663 7.46421 16.9676V15.1863C7.46421 13.4152 7.89353 11.9512 8.7507 10.7928C8.9297 10.5512 9.12616 10.3242 9.34155 10.1088C10.5946 8.86305 12.5519 8.24018 15.2151 8.24018C15.4349 8.24018 15.6503 8.24455 15.8613 8.25328C18.1985 8.34788 20.233 8.96492 21.3827 10.1073C21.598 10.3227 21.7945 10.5483 21.9735 10.7913C22.8321 11.9497 23.2615 13.4138 23.2615 15.1849V16.8046H23.26Z" fill="#0D98FF"/>
<path opacity="0.14" d="M26.6668 4.31234C25.5681 3.34748 24.35 2.56598 23.0141 1.96495C20.9897 1.05975 18.4022 0.570773 15.8322 0.500919C15.6182 0.495098 15.4029 0.492188 15.1846 0.492188C12.3555 0.492188 9.84362 0.991354 7.64904 1.98969C6.33781 2.58636 5.14011 3.35912 4.05591 4.3138C1.15842 6.86056 0 10.2761 0 14.5605V17.4391C0 21.7235 1.15842 25.1391 4.05737 27.6859C5.14156 28.6405 6.33927 29.4133 7.65049 30.01C9.84508 31.0068 12.3569 31.5075 15.186 31.5075C15.4029 31.5075 15.6197 31.5045 15.8336 31.4987C18.4037 31.4289 20.9912 30.9399 23.0155 30.0332C24.3515 29.4337 25.5696 28.6522 26.6683 27.6859C29.5658 25.1391 31.0153 21.7235 31.0153 17.4391V14.5605C31.0153 10.2761 29.5658 6.86056 26.6683 4.3138L26.6668 4.31234ZM23.26 16.8046V16.9691C23.2338 18.6659 22.8045 20.0761 21.9735 21.1967C21.796 21.4383 21.5995 21.6653 21.3827 21.8807C20.233 23.0231 18.1985 23.6416 15.8613 23.7347C15.6503 23.7435 15.4349 23.7478 15.2151 23.7478C12.5519 23.7478 10.5946 23.125 9.34155 21.8792C9.12616 21.6638 8.9297 21.4383 8.7507 21.1952C7.91972 20.0732 7.49041 18.663 7.46421 16.9676V15.1863C7.46421 13.4152 7.89353 11.9512 8.7507 10.7928C8.9297 10.5512 9.12616 10.3242 9.34155 10.1088C10.5946 8.86305 12.5519 8.24018 15.2151 8.24018C15.4349 8.24018 15.6503 8.24455 15.8613 8.25328C18.1985 8.34788 20.233 8.96492 21.3827 10.1073C21.598 10.3227 21.7945 10.5483 21.9735 10.7913C22.8321 11.9497 23.2615 13.4138 23.2615 15.1849V16.8046H23.26Z" fill="url(#paint0_linear_1587_3947)"/>
<path d="M24.8024 8.71314C24.5215 8.33185 24.2043 7.96511 23.8594 7.62166C22.0723 5.84475 19.2359 4.87843 16.0109 4.74745C15.7534 4.73581 15.4929 4.73145 15.2149 4.73145C11.6014 4.73145 8.79268 5.70358 6.8615 7.62166C6.52096 7.9622 6.20516 8.32603 5.92429 8.70586C4.61307 10.4755 3.948 12.6584 3.948 15.1907V17.0258C3.98584 19.4649 4.64945 21.5736 5.92429 23.2908C6.20516 23.6707 6.51951 24.0345 6.8615 24.3765C8.79122 26.2946 11.6014 27.2667 15.2149 27.2667C15.4929 27.2667 15.7534 27.2609 16.0051 27.2507C19.2373 27.1212 22.0723 26.1534 23.8608 24.3765C24.2057 24.0345 24.5215 23.6678 24.798 23.2923C26.0714 21.5736 26.7379 19.4649 26.7743 17.0331V15.1921C26.7743 12.6599 26.1092 10.4784 24.8024 8.71459V8.71314ZM23.2598 16.806V16.9705C23.2336 18.6674 22.8043 20.0775 21.9733 21.1981C21.7957 21.4397 21.5993 21.6667 21.3824 21.8821C20.2328 23.0245 18.1983 23.643 15.8611 23.7362C15.65 23.7449 15.4347 23.7493 15.2149 23.7493C12.5517 23.7493 10.5943 23.1264 9.34133 21.8807C9.12594 21.6653 8.92948 21.4397 8.75047 21.1967C7.9195 20.0746 7.49019 18.6645 7.46399 16.969V15.1877C7.46399 13.4167 7.89331 11.9526 8.75047 10.7942C8.92948 10.5526 9.12594 10.3256 9.34133 10.1102C10.5943 8.86449 12.5517 8.24162 15.2149 8.24162C15.4347 8.24162 15.65 8.24599 15.8611 8.25472C18.1983 8.34931 20.2328 8.96636 21.3824 10.1088C21.5978 10.3241 21.7943 10.5497 21.9733 10.7928C22.8319 11.9512 23.2612 13.4152 23.2612 15.1863V16.806H23.2598Z" fill="url(#paint1_linear_1587_3947)"/>
<path opacity="0.25" d="M14.4251 27.3018C11.1812 27.1708 8.62426 26.1987 6.82697 24.413C6.48061 24.0696 6.16336 23.7028 5.88394 23.323C4.60328 21.5941 3.9353 19.4781 3.89746 17.0332V15.1908C3.89746 12.647 4.56399 10.4582 5.87957 8.68273C6.16045 8.30144 6.47916 7.9318 6.82697 7.58544C8.62281 5.79979 11.1783 4.82765 14.4193 4.69667C14.671 4.68503 14.933 4.68066 15.2182 4.68066C18.8448 4.68066 21.9577 5.65862 23.899 7.58544C24.241 7.92743 24.5583 8.29416 24.8421 8.67545C26.1606 10.4538 26.8286 12.6455 26.8286 15.1908V17.0274C26.7907 19.4781 26.1227 21.5956 24.8435 23.3216C24.5627 23.7028 24.2454 24.0696 23.9005 24.413C21.9606 26.3413 18.8477 27.3178 15.2197 27.3178C14.933 27.3178 14.6739 27.312 14.428 27.3018H14.4251V27.3018ZM14.4236 4.79854C11.2089 4.92806 8.67665 5.89001 6.89974 7.65674C6.55483 7.99874 6.23903 8.36402 5.96253 8.7424C4.66004 10.4989 4.00079 12.6688 4.00079 15.1894V17.0303C4.03717 19.4519 4.69933 21.549 5.96689 23.2604C6.2434 23.6359 6.55774 23.9983 6.89974 24.3388C8.67811 26.1055 11.2118 27.0675 14.4294 27.1985C14.6739 27.2101 14.9315 27.2145 15.2168 27.2145C18.8157 27.2145 21.9053 26.2467 23.8248 24.3388C24.1654 23.9997 24.4783 23.6359 24.7577 23.259C26.0252 21.5505 26.6859 19.4534 26.7238 17.0245V15.1879C26.7238 12.6659 26.0616 10.4946 24.7577 8.73366C24.4783 8.35529 24.1639 7.99292 23.8248 7.65529C21.9038 5.7474 18.8157 4.77962 15.2168 4.77962C14.933 4.77962 14.6739 4.78545 14.4236 4.79563V4.79854V4.79854ZM14.5691 23.7902C12.229 23.6956 10.4579 23.0669 9.30534 21.9201C9.08268 21.6989 8.88767 21.4733 8.71012 21.2303C7.87478 20.1053 7.4382 18.6719 7.41346 16.9634V15.1894C7.41346 13.4154 7.85005 11.9266 8.71158 10.7653C8.88913 10.5237 9.08414 10.2981 9.3068 10.0754C10.4608 8.92867 12.2319 8.29999 14.5706 8.20539C14.7773 8.19666 14.9883 8.19229 15.2197 8.19229C17.8843 8.19229 20.1648 8.82535 21.4207 10.0754C21.6419 10.2967 21.8369 10.5208 22.0174 10.7653C22.8789 11.9266 23.314 13.4154 23.314 15.1894V16.9721C23.2878 18.6719 22.8527 20.1039 22.0174 21.2303C21.8369 21.4733 21.6419 21.6989 21.4207 21.9201C20.1633 23.1702 17.8843 23.8033 15.2197 23.8033C14.9897 23.8033 14.7773 23.7989 14.5721 23.7902H14.5691Z" fill="url(#paint2_linear_1587_3947)"/>
<defs>
<linearGradient id="paint0_linear_1587_3947" x1="5.22451" y1="0.962248" x2="25.0005" y2="30.2195" gradientUnits="userSpaceOnUse">
<stop stop-color="white"/>
<stop offset="0.04" stop-color="white" stop-opacity="0.82"/>
<stop offset="0.09" stop-color="white" stop-opacity="0.66"/>
<stop offset="0.13" stop-color="white" stop-opacity="0.51"/>
<stop offset="0.19" stop-color="white" stop-opacity="0.38"/>
<stop offset="0.25" stop-color="white" stop-opacity="0.27"/>
<stop offset="0.31" stop-color="white" stop-opacity="0.19"/>
<stop offset="0.39" stop-color="white" stop-opacity="0.12"/>
<stop offset="0.49" stop-color="white" stop-opacity="0.07"/>
<stop offset="0.62" stop-color="white" stop-opacity="0.05"/>
<stop offset="1" stop-color="white" stop-opacity="0.04"/>
</linearGradient>
<linearGradient id="paint1_linear_1587_3947" x1="15.3604" y1="4.5277" x2="15.3604" y2="27.0295" gradientUnits="userSpaceOnUse">
<stop stop-color="#0940C3"/>
<stop offset="0.17" stop-color="#0A47C9" stop-opacity="0.87"/>
<stop offset="0.53" stop-color="#0D5BDB" stop-opacity="0.52"/>
<stop offset="1" stop-color="#1378F4" stop-opacity="0.04"/>
</linearGradient>
<linearGradient id="paint2_linear_1587_3947" x1="19.7631" y1="27.0849" x2="16.9951" y2="20.1112" gradientUnits="userSpaceOnUse">
<stop stop-color="white"/>
<stop offset="0.82" stop-color="white" stop-opacity="0.21"/>
<stop offset="1" stop-color="white" stop-opacity="0.04"/>
</linearGradient>
</defs>
</svg>
