<svg width="63" height="63" viewBox="0 0 63 63" fill="none" xmlns="http://www.w3.org/2000/svg">
<mask id="mask0_1587_3993" style="mask-type:alpha" maskUnits="userSpaceOnUse" x="0" y="0" width="63" height="63">
<path d="M1.43454 18.9099C3.44015 10.2231 10.2232 3.44011 18.91 1.43452C27.1944 -0.47817 35.8057 -0.478176 44.0901 1.43451C52.7769 3.44011 59.56 10.2232 61.5656 18.91C63.4783 27.1944 63.4783 35.8057 61.5656 44.0901C59.56 52.7769 52.7769 59.56 44.0901 61.5656C35.8057 63.4783 27.1944 63.4783 18.91 61.5656C10.2232 59.56 3.44015 52.777 1.43454 44.0902C-0.478181 35.8057 -0.478181 27.1944 1.43454 18.9099Z" fill="black"/>
</mask>
<g mask="url(#mask0_1587_3993)">
<rect width="63.0001" height="63.0001" fill="white"/>
<rect x="-1" y="-1" width="76" height="76" fill="url(#paint0_linear_1587_3993)"/>
<path d="M96.1816 19.2738L52.8806 -5.72607L32.8719 28.93C27.7658 37.7741 27.8054 48.76 32.9769 57.599C35.4656 61.853 39.0518 65.4129 43.3484 67.8935C47.645 70.3742 52.521 71.6999 57.4494 71.7282C67.6897 71.7864 77.2232 66.3284 82.3294 57.4843L102.338 22.8282L96.1816 19.2738Z" fill="#007EEF"/>
<path style="mix-blend-mode:lighten" opacity="0.1" d="M96.1816 19.2738L52.8806 -5.72607L32.8719 28.93C27.7658 37.7741 27.8054 48.76 32.9769 57.599C35.4656 61.853 39.0518 65.4129 43.3484 67.8935C47.645 70.3742 52.521 71.6999 57.4494 71.7282C67.6897 71.7864 77.2232 66.3284 82.3294 57.4843L102.338 22.8282L96.1816 19.2738Z" fill="url(#paint1_linear_1587_3993)"/>
<path d="M94.9476 16.9376L67.8054 1.26709L48.1676 35.2808C44.9667 40.8249 44.9919 47.711 48.2336 53.2516C49.7937 55.9181 52.0415 58.1494 54.7348 59.7044C57.4282 61.2594 60.4844 62.0904 63.5737 62.1082C69.9923 62.145 75.9684 58.7237 79.1693 53.1796L98.8071 19.1659L94.9482 16.938L94.9476 16.9376Z" fill="url(#paint2_linear_1587_3993)"/>
<path d="M-10.605 36.1224C5.68379 45.5267 26.4991 39.9684 35.8873 23.7075C45.2756 7.44661 39.6816 -13.3592 23.3928 -22.7635C7.10406 -32.1678 -13.7113 -26.6094 -23.0995 -10.3486C-32.4877 5.91234 -26.8937 26.7181 -10.605 36.1224Z" fill="url(#paint3_radial_1587_3993)"/>
</g>
<defs>
<linearGradient id="paint0_linear_1587_3993" x1="20.5" y1="-13.5" x2="37" y2="75" gradientUnits="userSpaceOnUse">
<stop/>
<stop offset="1" stop-color="#3D0000"/>
</linearGradient>
<linearGradient id="paint1_linear_1587_3993" x1="70.9388" y1="-25.6727" x2="62.1065" y2="70.817" gradientUnits="userSpaceOnUse">
<stop stop-color="white"/>
<stop offset="1" stop-color="white" stop-opacity="0"/>
</linearGradient>
<linearGradient id="paint2_linear_1587_3993" x1="29.3745" y1="12.0708" x2="71.6604" y2="36.4845" gradientUnits="userSpaceOnUse">
<stop offset="0.28" stop-color="#0E2D8E"/>
<stop offset="0.67" stop-color="#115BCD"/>
<stop offset="1" stop-color="#157FFF"/>
</linearGradient>
<radialGradient id="paint3_radial_1587_3993" cx="0" cy="0" r="1" gradientUnits="userSpaceOnUse" gradientTransform="translate(6.39392 6.67947) rotate(30) scale(34.056 33.9978)">
<stop stop-color="#F13D21"/>
<stop offset="0.51" stop-color="#F06D24"/>
<stop offset="1" stop-color="#FF8700"/>
</radialGradient>
</defs>
</svg>
