<?xml version="1.0" encoding="UTF-8"?>
<svg xmlns="http://www.w3.org/2000/svg" xmlns:xlink="http://www.w3.org/1999/xlink" viewBox="0 0 32 32">
  <defs>
    <style>
      .cls-1 {
        fill: url(#linear-gradient);
        opacity: .14;
      }

      .cls-1, .cls-2 {
        mix-blend-mode: hard-light;
      }

      .cls-3 {
        fill: #0d98ff;
      }

      .cls-2 {
        fill: url(#linear-gradient-3);
        opacity: .25;
      }

      .cls-4 {
        fill: url(#linear-gradient-2);
      }

      .cls-5 {
        isolation: isolate;
      }
    </style>
    <linearGradient id="linear-gradient" x1="5.39" y1=".49" x2="25.8" y2="30.67" gradientUnits="userSpaceOnUse">
      <stop offset="0" stop-color="#fff"/>
      <stop offset=".04" stop-color="#fff" stop-opacity=".82"/>
      <stop offset=".09" stop-color="#fff" stop-opacity=".66"/>
      <stop offset=".13" stop-color="#fff" stop-opacity=".51"/>
      <stop offset=".19" stop-color="#fff" stop-opacity=".38"/>
      <stop offset=".25" stop-color="#fff" stop-opacity=".27"/>
      <stop offset=".31" stop-color="#fff" stop-opacity=".19"/>
      <stop offset=".39" stop-color="#fff" stop-opacity=".12"/>
      <stop offset=".49" stop-color="#fff" stop-opacity=".07"/>
      <stop offset=".62" stop-color="#fff" stop-opacity=".05"/>
      <stop offset="1" stop-color="#fff" stop-opacity=".04"/>
    </linearGradient>
    <linearGradient id="linear-gradient-2" x1="15.85" y1="4.16" x2="15.85" y2="27.38" gradientUnits="userSpaceOnUse">
      <stop offset="0" stop-color="#0940c3"/>
      <stop offset=".17" stop-color="#0a47c9" stop-opacity=".87"/>
      <stop offset=".53" stop-color="#0d5bdb" stop-opacity=".52"/>
      <stop offset="1" stop-color="#1378f4" stop-opacity=".04"/>
    </linearGradient>
    <linearGradient id="linear-gradient-3" x1="22247.31" y1="27.44" x2="22250.16" y2="20.24" gradientTransform="translate(22267.7) rotate(-180) scale(1 -1)" gradientUnits="userSpaceOnUse">
      <stop offset="0" stop-color="#fff"/>
      <stop offset=".82" stop-color="#fff" stop-opacity=".21"/>
      <stop offset="1" stop-color="#fff" stop-opacity=".04"/>
    </linearGradient>
  </defs>
  <g class="cls-5">
    <g id="Layer_2" data-name="Layer 2">
      <g id="Layer_1-2" data-name="Layer 1">
        <g>
          <path class="cls-3" d="m27.51,3.94c-1.13-1-2.39-1.8-3.77-2.42C21.66.59,18.99.08,16.34,0c-.22,0-.44,0-.67,0-2.92,0-5.51.52-7.77,1.54-1.35.62-2.59,1.41-3.71,2.4C1.2,6.57,0,10.09,0,14.52v2.97c0,4.42,1.2,7.94,4.19,10.57,1.12.98,2.35,1.78,3.71,2.4,2.26,1.03,4.86,1.54,7.77,1.54.22,0,.45,0,.67,0,2.65-.07,5.32-.58,7.41-1.51,1.38-.62,2.63-1.43,3.77-2.42,2.99-2.63,4.49-6.15,4.49-10.57v-2.97c0-4.42-1.5-7.94-4.49-10.57Zm-3.51,12.89c0,.05,0,.11,0,.16h0c-.03,1.76-.47,3.21-1.33,4.37-.18.25-.39.48-.61.71-1.19,1.18-3.28,1.82-5.7,1.91-.22,0-.44.01-.67.01-2.75,0-4.77-.64-6.06-1.93-.22-.22-.43-.46-.61-.71-.86-1.16-1.3-2.61-1.33-4.36h0c0-.06,0-.12,0-.17v-1.67c0-1.83.44-3.34,1.33-4.53.18-.25.39-.48.61-.71,1.29-1.29,3.31-1.93,6.06-1.93.23,0,.45,0,.67.01,2.41.1,4.51.73,5.7,1.91.22.22.43.46.61.71.89,1.19,1.33,2.71,1.33,4.53v1.67Z"/>
          <path class="cls-1" d="m27.51,3.94c-1.13-1-2.39-1.8-3.77-2.42C21.66.59,18.99.08,16.34,0c-.22,0-.44,0-.67,0-2.92,0-5.51.52-7.77,1.54-1.35.62-2.59,1.41-3.71,2.4C1.2,6.57,0,10.09,0,14.52v2.97c0,4.42,1.2,7.94,4.19,10.57,1.12.98,2.35,1.78,3.71,2.4,2.26,1.03,4.86,1.54,7.77,1.54.22,0,.45,0,.67,0,2.65-.07,5.32-.58,7.41-1.51,1.38-.62,2.63-1.43,3.77-2.42,2.99-2.63,4.49-6.15,4.49-10.57v-2.97c0-4.42-1.5-7.94-4.49-10.57Zm-3.51,12.89c0,.05,0,.11,0,.16h0c-.03,1.76-.47,3.21-1.33,4.37-.18.25-.39.48-.61.71-1.19,1.18-3.28,1.82-5.7,1.91-.22,0-.44.01-.67.01-2.75,0-4.77-.64-6.06-1.93-.22-.22-.43-.46-.61-.71-.86-1.16-1.3-2.61-1.33-4.36h0c0-.06,0-.12,0-.17v-1.67c0-1.83.44-3.34,1.33-4.53.18-.25.39-.48.61-.71,1.29-1.29,3.31-1.93,6.06-1.93.23,0,.45,0,.67.01,2.41.1,4.51.73,5.7,1.91.22.22.43.46.61.71.89,1.19,1.33,2.71,1.33,4.53v1.67Z"/>
          <path class="cls-4" d="m25.59,8.48c-.29-.39-.62-.77-.97-1.13-1.84-1.83-4.77-2.83-8.1-2.97-.27-.01-.53-.02-.82-.02-3.73,0-6.63,1-8.62,2.98-.35.35-.68.73-.97,1.12-1.35,1.83-2.04,4.08-2.04,6.69v1.67c0,.06,0,.13,0,.19v.04c.04,2.52.72,4.69,2.04,6.46.29.39.61.77.97,1.12,1.99,1.98,4.89,2.98,8.62,2.98.29,0,.56,0,.81-.02,3.33-.13,6.26-1.13,8.11-2.97.36-.35.68-.73.97-1.12,1.31-1.77,2-3.95,2.04-6.46v-.04c0-.06,0-.13,0-.19v-1.67c0-2.61-.69-4.86-2.04-6.68Zm-1.59,8.35c0,.05,0,.11,0,.16h0c-.03,1.76-.47,3.21-1.33,4.37-.18.25-.39.48-.61.71-1.19,1.18-3.28,1.82-5.7,1.91-.22,0-.44.01-.67.01-2.75,0-4.77-.64-6.06-1.93-.22-.22-.43-.46-.61-.71-.86-1.16-1.3-2.61-1.33-4.36h0c0-.06,0-.12,0-.17v-1.67c0-1.83.44-3.34,1.33-4.53.18-.25.39-.48.61-.71,1.29-1.29,3.31-1.93,6.06-1.93.23,0,.45,0,.67.01,2.41.1,4.51.73,5.7,1.91.22.22.43.46.61.71.89,1.19,1.33,2.71,1.33,4.53v1.67Z"/>
          <path class="cls-2" d="m14.88,27.66c-3.35-.14-5.99-1.14-7.84-2.98-.36-.35-.68-.73-.97-1.13-1.32-1.78-2.01-3.97-2.05-6.49v-.04c0-.06,0-.13,0-.19v-1.67c0-2.62.69-4.88,2.05-6.72.29-.39.62-.78.98-1.13,1.85-1.84,4.49-2.85,7.83-2.98.26-.01.53-.02.82-.02,3.74,0,6.95,1.01,8.96,3,.35.35.68.73.97,1.13,1.36,1.84,2.05,4.1,2.05,6.72v1.67c0,.06,0,.13,0,.19v.04c-.04,2.53-.73,4.71-2.05,6.49-.29.39-.62.77-.97,1.13-2,1.99-5.21,3-8.96,3-.3,0-.56,0-.82-.02Zm0-23.22c-3.32.13-5.93,1.13-7.76,2.95-.36.35-.68.73-.97,1.12h0c-1.34,1.81-2.02,4.05-2.02,6.65v1.67c0,.06,0,.13,0,.19v.04c.04,2.5.72,4.66,2.03,6.43.29.39.61.76.96,1.11,1.84,1.82,4.45,2.82,7.77,2.95.25.01.52.02.81.02,3.71,0,6.9-1,8.88-2.97.35-.35.67-.72.96-1.11,1.31-1.76,1.99-3.93,2.03-6.43v-.04c0-.06,0-.13,0-.19v-1.67c0-2.6-.68-4.84-2.03-6.66-.29-.39-.61-.76-.96-1.11-1.98-1.97-5.17-2.97-8.88-2.97-.29,0-.56,0-.82.02Zm.15,19.6c-2.41-.1-4.24-.75-5.43-1.93-.23-.23-.43-.46-.61-.71-.86-1.16-1.31-2.64-1.34-4.4,0-.05,0-.11,0-.16v-1.67c0-1.83.45-3.37,1.34-4.56.18-.25.38-.48.61-.71,1.19-1.18,3.02-1.83,5.43-1.93.21,0,.43-.01.67-.01,2.75,0,5.1.65,6.4,1.94.23.23.43.46.62.71.89,1.2,1.34,2.73,1.34,4.57v1.67c0,.05,0,.11,0,.17-.03,1.75-.48,3.23-1.34,4.39-.19.25-.39.48-.62.71-1.3,1.29-3.65,1.94-6.4,1.94-.24,0-.46,0-.67-.01Z"/>
        </g>
      </g>
    </g>
  </g>
</svg>